<?xml version="1.0" encoding="UTF-8" standalone="no"?>
<!-- Created with Inkscape (http://www.inkscape.org/) -->

<svg
   xmlns:dc="http://purl.org/dc/elements/1.1/"
   xmlns:cc="http://creativecommons.org/ns#"
   xmlns:rdf="http://www.w3.org/1999/02/22-rdf-syntax-ns#"
   xmlns:svg="http://www.w3.org/2000/svg"
   xmlns="http://www.w3.org/2000/svg"
   xmlns:xlink="http://www.w3.org/1999/xlink"
   xmlns:sodipodi="http://sodipodi.sourceforge.net/DTD/sodipodi-0.dtd"
   xmlns:inkscape="http://www.inkscape.org/namespaces/inkscape"
   width="139.78235mm"
   height="106.35287mm"
   viewBox="0 0 495.29179 376.84087"
   id="svg20663"
   version="1.1"
   inkscape:version="0.91pre3 r13670"
   sodipodi:docname="board.svg"
   inkscape:export-filename="C:\Users\Michal\diplomka\text\board.png"
   inkscape:export-xdpi="90"
   inkscape:export-ydpi="90">
  <defs
     id="defs20665">
    <clipPath
       clipPathUnits="userSpaceOnUse"
       id="clipPath4729-3-0-8">
      <path
         d="M 3329.49,10.8789 21.3281,149.32 C 9.92188,149.781 0.738281,164.16 0.78125,181.5 l 5,1940.98 c 0.07813,17.38 9.25785,32.66 20.69925,34.22 L 3339.38,2611.82 c 19.25,2.65 34.72,-13.44 34.64,-36.06 L 3364.41,50.1406 c -0.07,-22.582 -15.66,-40.1211 -34.88,-39.3008"
         id="path4731-1-4-9"
         inkscape:connector-curvature="0" />
    </clipPath>
    <linearGradient
       x1="125.89"
       y1="286.38"
       x2="569.34998"
       y2="130.07001"
       gradientUnits="userSpaceOnUse"
       gradientTransform="matrix(-8,0,0,-8.0688,5708.06,2053.83)"
       spreadMethod="pad"
       id="linearGradient4733">
      <stop
         style="stop-opacity:1;stop-color:#867850"
         offset="0"
         id="stop4735" />
      <stop
         style="stop-opacity:1;stop-color:#a08872"
         offset="0.35474"
         id="stop4737" />
      <stop
         style="stop-opacity:1;stop-color:#867850"
         offset="1"
         id="stop4739" />
    </linearGradient>
    <clipPath
       clipPathUnits="userSpaceOnUse"
       id="clipPath4753-8-9-7">
      <path
         d="m 1394.92,223.57 -241.37,-30.699 6.41,-43.672 240.16,39.02 -5.2,35.351 z"
         id="path4755-1-2-4"
         inkscape:connector-curvature="0" />
    </clipPath>
    <linearGradient
       x1="412.44"
       y1="330.39001"
       x2="411.64001"
       y2="335.09"
       gradientUnits="userSpaceOnUse"
       gradientTransform="matrix(-8,0,0,-8,4576.22,2849.44)"
       spreadMethod="pad"
       id="linearGradient4757">
      <stop
         style="stop-opacity:1;stop-color:#b8b8b8"
         offset="0"
         id="stop4759" />
      <stop
         style="stop-opacity:1;stop-color:#e3e3e3"
         offset="0.5"
         id="stop4761" />
      <stop
         style="stop-opacity:1;stop-color:#b9b9b9"
         offset="1"
         id="stop4763" />
    </linearGradient>
    <clipPath
       clipPathUnits="userSpaceOnUse"
       id="clipPath4773-0-0-7">
      <path
         d="M 1358.05,170.488 1126.13,244 l -12.54,-42.34 234.3,-65.43 10.16,34.219 0,0.039 z"
         id="path4775-8-2-0"
         inkscape:connector-curvature="0" />
    </clipPath>
    <linearGradient
       x1="412.44"
       y1="330.39001"
       x2="411.64001"
       y2="335.09"
       gradientUnits="userSpaceOnUse"
       gradientTransform="matrix(-7.25976,3.36104,-3.36104,-7.25976,5348.14,1216.79)"
       spreadMethod="pad"
       id="linearGradient4777">
      <stop
         style="stop-opacity:1;stop-color:#b8b8b8"
         offset="0"
         id="stop4779" />
      <stop
         style="stop-opacity:1;stop-color:#e3e3e3"
         offset="0.5"
         id="stop4781" />
      <stop
         style="stop-opacity:1;stop-color:#b9b9b9"
         offset="1"
         id="stop4783" />
    </linearGradient>
    <clipPath
       clipPathUnits="userSpaceOnUse"
       id="clipPath4793-9-1-5">
      <path
         d="m 1023.52,127.988 226.21,89.532 -17.03,40.742 -222.97,-97.301 13.79,-32.973 z"
         id="path4795-3-5-3"
         inkscape:connector-curvature="0" />
    </clipPath>
    <linearGradient
       x1="412.44"
       y1="330.39001"
       x2="411.64001"
       y2="335.09"
       gradientUnits="userSpaceOnUse"
       gradientTransform="matrix(7.75072,1.98168,-1.98168,7.75072,-1408.1,-3204.09)"
       spreadMethod="pad"
       id="linearGradient4797">
      <stop
         style="stop-opacity:1;stop-color:#b8b8b8"
         offset="0"
         id="stop4799" />
      <stop
         style="stop-opacity:1;stop-color:#e3e3e3"
         offset="0.5"
         id="stop4801" />
      <stop
         style="stop-opacity:1;stop-color:#b9b9b9"
         offset="1"
         id="stop4803" />
    </linearGradient>
    <clipPath
       id="clipPath19936"
       clipPathUnits="userSpaceOnUse">
      <path
         inkscape:connector-curvature="0"
         id="path19938"
         d="m 139.57,233.371 231.95,0 13.011,-121.332 C 382.852,91.3398 382.07,90.6719 369.879,81.4492 354.84,72.5508 336.68,67.8594 320.121,64.4609 278.629,56.0586 232.73,56.1016 177.422,74.6992 159.379,80.3594 151.328,105.238 152.539,115.441 l -12.969,117.93 z" />
    </clipPath>
    <linearGradient
       id="linearGradient19940"
       spreadMethod="pad"
       gradientTransform="matrix(1.06901,0,0,-1.06901,-163.738,752.543)"
       gradientUnits="userSpaceOnUse"
       y2="567.18799"
       x2="513.76398"
       y1="567.18799"
       x1="282.82199">
      <stop
         id="stop19942"
         offset="0"
         style="stop-opacity:1;stop-color:#000000" />
      <stop
         id="stop19944"
         offset="0.768545"
         style="stop-opacity:1;stop-color:#383838" />
      <stop
         id="stop19946"
         offset="0.914304"
         style="stop-opacity:1;stop-color:#262626" />
      <stop
         id="stop19948"
         offset="1"
         style="stop-opacity:1;stop-color:#000000" />
    </linearGradient>
    <clipPath
       id="clipPath19956"
       clipPathUnits="userSpaceOnUse">
      <path
         inkscape:connector-curvature="0"
         id="path19958"
         d="M 0,0 520,0 520,290 0,290 0,0 Z" />
    </clipPath>
    <clipPath
       id="clipPath19962"
       clipPathUnits="userSpaceOnUse">
      <path
         inkscape:connector-curvature="0"
         id="path19964"
         d="m -1.25,220.52 250.469,55 L 510.352,225.129 258.359,128.91 -1.25,220.52 Z" />
    </clipPath>
    <linearGradient
       id="linearGradient19966"
       spreadMethod="pad"
       gradientTransform="matrix(1.06901,0,0,-1.06901,-166.173,570.48)"
       gradientUnits="userSpaceOnUse"
       y2="344.505"
       x2="633.35699"
       y1="344.505"
       x1="153.786">
      <stop
         id="stop19968"
         offset="0"
         style="stop-opacity:1;stop-color:#28292b" />
      <stop
         id="stop19970"
         offset="1"
         style="stop-opacity:1;stop-color:#1a2334" />
    </linearGradient>
    <clipPath
       id="clipPath19978"
       clipPathUnits="userSpaceOnUse">
      <path
         inkscape:connector-curvature="0"
         id="path19980"
         d="m 93.5195,104.93 13.7815,0.351 c 7.777,-31.6404 22,-75.6208 17.66,-82.7693 -5.512,-11.8008 -31.6016,-16.80076 -37.7696,-3.3203 0.3477,25.4688 7.3789,51.8281 6.3281,85.7386 z" />
    </clipPath>
    <linearGradient
       id="linearGradient19982"
       spreadMethod="pad"
       gradientTransform="matrix(1.06901,0,0,-1.47031,-166.173,745.114)"
       gradientUnits="userSpaceOnUse"
       y2="467.18201"
       x2="255.05701"
       y1="467.18201"
       x1="237.015">
      <stop
         id="stop19984"
         offset="0"
         style="stop-opacity:1;stop-color:#6cbb73" />
      <stop
         id="stop19986"
         offset="1"
         style="stop-opacity:1;stop-color:#7ccf83" />
    </linearGradient>
    <clipPath
       id="clipPath19998"
       clipPathUnits="userSpaceOnUse">
      <path
         inkscape:connector-curvature="0"
         id="path20000"
         d="m 88.2813,126.691 15.7387,2.219 4.378,-25.859 -15.7378,-2.223 -4.3789,25.863 z" />
    </clipPath>
    <linearGradient
       id="linearGradient20002"
       spreadMethod="pad"
       gradientTransform="matrix(1.15402,0.163492,0.178594,-1.05643,-191.537,570.48)"
       gradientUnits="userSpaceOnUse"
       y2="459.146"
       x2="187.46201"
       y1="459.146"
       x1="172.825">
      <stop
         id="stop20406"
         offset="0"
         style="stop-opacity:1;stop-color:#ffffff" />
      <stop
         id="stop20006"
         offset="1"
         style="stop-opacity:1;stop-color:#919191" />
    </linearGradient>
    <clipPath
       id="clipPath20020"
       clipPathUnits="userSpaceOnUse">
      <path
         inkscape:connector-curvature="0"
         id="path20022"
         d="m 108.129,132.27 c 0,-6.829 -5.59,-12.418 -12.4298,-12.418 -6.8711,0 -12.4179,5.589 -12.4179,12.418 0,6.878 5.5468,12.429 12.4179,12.429 6.8398,0 12.4298,-5.551 12.4298,-12.429 z" />
    </clipPath>
    <radialGradient
       id="radialGradient20024"
       spreadMethod="pad"
       gradientTransform="matrix(1.06901,0,0,-1.06901,-164.013,569.4)"
       gradientUnits="userSpaceOnUse"
       r="11.6168"
       cy="408.89499"
       cx="242.942"
       fy="408.89499"
       fx="242.942">
      <stop
         id="stop20026"
         offset="0"
         style="stop-opacity:1;stop-color:#6cbb73" />
      <stop
         id="stop20028"
         offset="1"
         style="stop-opacity:1;stop-color:#7ccf83" />
    </radialGradient>
    <clipPath
       id="clipPath20036"
       clipPathUnits="userSpaceOnUse">
      <path
         inkscape:connector-curvature="0"
         id="path20038"
         d="m 276.449,228.719 c -6.961,-5.039 -24.027,-4.84 -31.179,0 0,3.511 6.96,6.371 15.589,6.371 8.59,0 15.59,-2.86 15.59,-6.371 z" />
    </clipPath>
    <linearGradient
       x1="44.285702"
       y1="451.68399"
       x2="80.714302"
       y2="451.68399"
       gradientUnits="userSpaceOnUse"
       gradientTransform="matrix(0.856311,0,0,-0.746661,207.337,566.996)"
       spreadMethod="pad"
       id="linearGradient20040">
      <stop
         style="stop-opacity:1;stop-color:#000000"
         offset="0"
         id="stop14179" />
      <stop
         style="stop-opacity:1;stop-color:#797979"
         offset="1"
         id="stop14181" />
    </linearGradient>
    <clipPath
       id="clipPath23466"
       clipPathUnits="userSpaceOnUse">
      <path
         sodipodi:nodetypes="ccccc"
         id="path23468"
         d="m 446.34671,381.91918 20.69043,0.0578 0.11381,26.98668 -20.74615,-0.41107 -0.0581,-26.63342"
         style="opacity:1;fill:none;fill-opacity:1;stroke:#000000;stroke-width:0.50639403;stroke-linecap:round;stroke-linejoin:round;stroke-miterlimit:4;stroke-dasharray:none;stroke-dashoffset:0;stroke-opacity:1"
         inkscape:connector-curvature="0" />
    </clipPath>
  </defs>
  <sodipodi:namedview
     id="base"
     pagecolor="#ffffff"
     bordercolor="#666666"
     borderopacity="1.0"
     inkscape:pageopacity="0.0"
     inkscape:pageshadow="2"
     inkscape:zoom="0.35"
     inkscape:cx="-146.77455"
     inkscape:cy="-464.89641"
     inkscape:document-units="px"
     inkscape:current-layer="g19150"
     showgrid="false"
     fit-margin-top="0"
     fit-margin-left="0"
     fit-margin-right="0"
     fit-margin-bottom="0" />
  <metadata
     id="metadata20668">
    <rdf:RDF>
      <cc:Work
         rdf:about="">
        <dc:format>image/svg+xml</dc:format>
        <dc:type
           rdf:resource="http://purl.org/dc/dcmitype/StillImage" />
        <dc:title></dc:title>
      </cc:Work>
    </rdf:RDF>
  </metadata>
  <g
     inkscape:label="Vrstva 1"
     inkscape:groupmode="layer"
     id="layer1"
     transform="translate(-94.910829,309.37509)">
    <g
       transform="translate(-875.11624,648.64099)"
       id="g19150">
      <g
         id="g61015"
         transform="matrix(1.3593891,0,0,1.3593891,-15.278854,279.86461)">
        <g
           transform="translate(2.2735629,13.845412)"
           id="g60965">
          <g
             id="g4717"
             inkscape:label="ink_ext_XXXXXX"
             transform="matrix(1.0650207,0,0,-1.0650207,722.54368,-646.18113)">
            <g
               id="g4719"
               transform="scale(0.1,0.1)">
              <path
                 d="M 3375.74,13.4219 67.5781,151.27 c -11.4492,0.468 -20.5898,14.8 -20.5468,32.07 l 5,1932.73 c 0.0781,17.31 9.2578,32.5 20.6992,34.07 L 3348.98,2611.27 c 27.19,-2.23 71.33,-21.33 71.25,-43.87 L 3410.66,52.6406 c -0.11,-22.5 -15.7,-39.9609 -34.92,-39.1797"
                 style="fill:#736e55;fill-opacity:1;fill-rule:nonzero;stroke:none"
                 id="path4721"
                 inkscape:connector-curvature="0" />
              <path
                 d="M 3375.74,13.418 67.5781,151.27 c -11.4492,0.468 -20.5898,14.8 -20.5468,32.07 l 5,1932.73 c 0.0781,17.31 9.2578,32.5 20.6992,34.07 L 3348.98,2611.27 c 27.19,-2.23 71.33,-21.33 71.25,-43.87 L 3410.66,52.6406 c -0.11,-22.5 -15.7,-39.9609 -34.92,-39.1797"
                 style="fill:none;stroke:#777777;stroke-width:1.60000002;stroke-linecap:butt;stroke-linejoin:round;stroke-miterlimit:4;stroke-dasharray:none;stroke-opacity:1"
                 id="path4723"
                 inkscape:connector-curvature="0" />
              <g
                 id="g4725">
                <g
                   id="g4727"
                   clip-path="url(#clipPath4729-3-0-8)">
                  <path
                     d="M 3329.49,10.8789 21.3281,149.32 C 9.92188,149.781 0.738281,164.16 0.78125,181.5 l 5,1940.98 c 0.07813,17.38 9.25785,32.66 20.69925,34.22 L 3339.38,2611.82 c 19.25,2.65 34.72,-13.44 34.64,-36.06 L 3364.41,50.1406 c -0.07,-22.582 -15.66,-40.1211 -34.88,-39.3008"
                     style="fill:url(#linearGradient4733);fill-opacity:1;fill-rule:nonzero;stroke:none"
                     id="path4741"
                     inkscape:connector-curvature="0" />
                </g>
              </g>
              <path
                 d="M 3329.49,10.8789 21.3281,149.32 C 9.92188,149.781 0.738281,164.16 0.78125,181.5 l 5,1940.98 c 0.07813,17.38 9.25785,32.66 20.69925,34.22 L 3339.38,2611.82 c 19.25,2.65 34.72,-13.44 34.64,-36.06 L 3364.41,50.1406 c -0.07,-22.582 -15.66,-40.1211 -34.88,-39.3008"
                 style="fill:none;stroke:#777777;stroke-width:1.60000002;stroke-linecap:butt;stroke-linejoin:round;stroke-miterlimit:4;stroke-dasharray:none;stroke-opacity:1"
                 id="path4743"
                 inkscape:connector-curvature="0" />
              <path
                 d="M 3190.86,138.219 116.289,230.68 c -11.328,0.351 -20.3476,15.039 -20.3085,33.011 L 100.59,2002.48 c 0.07,18.01 9.18,33.75 20.5,35.39 l 3078.87,438.63 c 19.02,2.7 34.3,-13.94 34.22,-37.3 l -8.87,-2259.919 c -0.08,-23.32 -15.47,-41.64 -34.45,-41.062"
                 style="fill:#424242;fill-opacity:1;fill-rule:nonzero;stroke:none"
                 id="path4745"
                 inkscape:connector-curvature="0" />
              <path
                 d="M 3190.86,138.219 116.289,230.68 c -11.328,0.351 -20.3476,15.039 -20.3085,33.011 L 100.59,2002.48 c 0.07,18.01 9.18,33.75 20.5,35.39 l 3078.87,438.63 c 19.02,2.7 34.3,-13.94 34.22,-37.3 l -8.87,-2259.919 c -0.08,-23.32 -15.47,-41.64 -34.45,-41.062"
                 style="fill:none;stroke:#777777;stroke-width:1.60000002;stroke-linecap:butt;stroke-linejoin:round;stroke-miterlimit:4;stroke-dasharray:none;stroke-opacity:1"
                 id="path4747"
                 inkscape:connector-curvature="0" />
              <g
                 id="g4749">
                <g
                   id="g4751"
                   clip-path="url(#clipPath4753-8-9-7)">
                  <path
                     d="m 1394.92,223.57 -241.37,-30.699 6.41,-43.672 240.16,39.02"
                     style="fill:url(#linearGradient4757);fill-opacity:1;fill-rule:nonzero;stroke:none"
                     id="path4765"
                     inkscape:connector-curvature="0" />
                </g>
              </g>
              <path
                 d="m 1394.92,223.57 -241.37,-30.699 6.41,-43.672 240.16,39.02 -5.2,35.351 z"
                 style="fill:none;stroke:#858585;stroke-width:0.80000001;stroke-linecap:butt;stroke-linejoin:round;stroke-miterlimit:4;stroke-dasharray:none;stroke-opacity:1"
                 id="path4767"
                 inkscape:connector-curvature="0" />
              <g
                 id="g4769">
                <g
                   id="g4771"
                   clip-path="url(#clipPath4773-0-0-7)">
                  <path
                     d="M 1358.05,170.488 1126.13,244 l -12.54,-42.34 234.3,-65.43 10.16,34.219"
                     style="fill:url(#linearGradient4777);fill-opacity:1;fill-rule:nonzero;stroke:none"
                     id="path4785"
                     inkscape:connector-curvature="0" />
                </g>
              </g>
              <path
                 d="M 1358.05,170.488 1126.13,244 l -12.54,-42.34 234.3,-65.43 10.16,34.219 0,0.039 z"
                 style="fill:none;stroke:#858585;stroke-width:0.80000001;stroke-linecap:butt;stroke-linejoin:round;stroke-miterlimit:4;stroke-dasharray:none;stroke-opacity:1"
                 id="path4787"
                 inkscape:connector-curvature="0" />
              <g
                 id="g4789">
                <g
                   id="g4791"
                   clip-path="url(#clipPath4793-9-1-5)">
                  <path
                     d="m 1023.52,127.988 226.21,89.532 -17.03,40.742 -222.97,-97.301"
                     style="fill:url(#linearGradient4797);fill-opacity:1;fill-rule:nonzero;stroke:none"
                     id="path4805"
                     inkscape:connector-curvature="0" />
                </g>
              </g>
              <path
                 d="m 1023.52,127.988 226.21,89.532 -17.03,40.742 -222.97,-97.301 13.79,-32.973 z"
                 style="fill:none;stroke:#858585;stroke-width:0.80000001;stroke-linecap:butt;stroke-linejoin:round;stroke-miterlimit:4;stroke-dasharray:none;stroke-opacity:1"
                 id="path4807"
                 inkscape:connector-curvature="0" />
              <path
                 d="m 2565.35,196.461 -300.94,-12.77 4.07,-95.1597 300.9,12.7777"
                 style="fill:#493a3d;fill-opacity:1;fill-rule:nonzero;stroke:none"
                 id="path4809"
                 inkscape:connector-curvature="0" />
              <path
                 d="m 2565.35,196.461 -300.94,-12.77 4.07,-95.1597 300.9,12.7777 -4.03,95.152 z"
                 style="fill:none;stroke:#858585;stroke-width:0.80000001;stroke-linecap:butt;stroke-linejoin:round;stroke-miterlimit:4;stroke-dasharray:none;stroke-opacity:1"
                 id="path4811"
                 inkscape:connector-curvature="0" />
              <path
                 d="m 2618.05,178.461 -51.84,19.367 0.86,-101.4374 51.88,0.9297"
                 style="fill:#685b49;fill-opacity:1;fill-rule:nonzero;stroke:none"
                 id="path4813"
                 inkscape:connector-curvature="0" />
              <path
                 d="M 40.6992,152.25 104.449,172.359 3222.3,71.6992 3114.92,31.4297 40.7383,152.25"
                 style="fill:#685b49;fill-opacity:1;fill-rule:nonzero;stroke:none"
                 id="path4815"
                 inkscape:connector-curvature="0" />
              <path
                 d="M 40.6992,152.25 104.449,172.359 3222.3,71.6992 3114.92,31.4297 40.7383,152.25 l -0.0391,0 z"
                 style="fill:none;stroke:#6e5739;stroke-width:31.20000076;stroke-linecap:butt;stroke-linejoin:miter;stroke-miterlimit:4;stroke-dasharray:none;stroke-opacity:1"
                 id="path4817"
                 inkscape:connector-curvature="0" />
            </g>
          </g>
          <image
             sodipodi:absref="C:\Users\Michal\diplomka\text\excel\posterD\lenachalk.png"
             xlink:href="excel\posterD\lenachalk.png"
             width="170.92593"
             height="170.92595"
             preserveAspectRatio="none"
             style="opacity:0.81999966;image-rendering:optimizeQuality"
             id="image4900"
             x="738.14819"
             y="-866.89728" />
          <g
             transform="matrix(-1,0,0,-1,1877.147,-1505.8441)"
             id="g4969"
             style="opacity:0.81999966">
            <path
               style="fill:none;fill-rule:evenodd;stroke:#ffffff;stroke-width:1.12433279;stroke-linecap:butt;stroke-linejoin:miter;stroke-miterlimit:4;stroke-dasharray:none;stroke-dashoffset:0;stroke-opacity:1"
               d="m 949.67579,-704.79091 72.52231,-45.34748 c 0,0 -46.10255,-35.7569 -72.17084,-50.84594"
               id="path6283"
               inkscape:connector-curvature="0"
               sodipodi:nodetypes="ccc" />
            <path
               inkscape:connector-curvature="0"
               id="rect3336-5"
               d="m 949.85226,-801.22894 c 0,0 -33.1474,0.25335 -33.1474,0.25335 0,0 0.0468,32.52442 0.0468,32.52442 0,0 33.13379,-0.64632 33.13379,-0.64632 0,0 -0.0332,-32.13145 -0.0332,-32.13145"
               style="fill:none;fill-opacity:1;fill-rule:evenodd;stroke:#ffffff;stroke-width:1.12433279;stroke-linecap:butt;stroke-linejoin:miter;stroke-miterlimit:4;stroke-dasharray:none;stroke-opacity:1" />
            <path
               inkscape:connector-curvature="0"
               id="rect3336-5-2"
               d="m 949.88537,-769.14504 c 0,0 -33.13381,0.64575 -33.13381,0.64575 0,0 0.0467,32.49855 0.0467,32.49855 0,0 33.1202,-1.0381 33.1202,-1.0381 0,0 -0.0331,-32.1062 -0.0331,-32.1062"
               style="fill:none;fill-opacity:1;fill-rule:evenodd;stroke:#ffffff;stroke-width:1.12433279;stroke-linecap:butt;stroke-linejoin:miter;stroke-miterlimit:4;stroke-dasharray:none;stroke-opacity:1" />
            <path
               inkscape:connector-curvature="0"
               id="rect3336-5-6"
               d="m 949.91855,-736.99458 c 0,0 -33.12019,1.03864 -33.12019,1.03864 0,0 0.0467,32.47264 0.0467,32.47264 0,0 33.1066,-1.43038 33.1066,-1.43038 0,0 -0.0331,-32.0809 -0.0331,-32.0809"
               style="fill:none;fill-opacity:1;fill-rule:evenodd;stroke:#ffffff;stroke-width:1.12433279;stroke-linecap:butt;stroke-linejoin:miter;stroke-miterlimit:4;stroke-dasharray:none;stroke-opacity:1" />
            <path
               inkscape:connector-curvature="0"
               id="rect3336-5-7"
               d="m 916.70042,-800.97556 c 0,0 -33.96889,0.25963 -33.96889,0.25963 0,0 0.0611,32.92719 0.0611,32.92719 0,0 33.9546,-0.66234 33.9546,-0.66234 0,0 -0.0468,-32.52448 -0.0468,-32.52448"
               style="fill:none;fill-opacity:1;fill-rule:evenodd;stroke:#ffffff;stroke-width:1.12433279;stroke-linecap:butt;stroke-linejoin:miter;stroke-miterlimit:4;stroke-dasharray:none;stroke-opacity:1" />
            <path
               inkscape:connector-curvature="0"
               id="rect3336-5-2-8"
               d="m 916.74713,-768.49921 c 0,0 -33.95463,0.66175 -33.95463,0.66175 0,0 0.061,32.90067 0.061,32.90067 0,0 33.94036,-1.06381 33.94036,-1.06381 0,0 -0.0467,-32.49861 -0.0467,-32.49861"
               style="fill:none;fill-opacity:1;fill-rule:evenodd;stroke:#ffffff;stroke-width:1.12433279;stroke-linecap:butt;stroke-linejoin:miter;stroke-miterlimit:4;stroke-dasharray:none;stroke-opacity:1" />
            <path
               inkscape:connector-curvature="0"
               id="rect3336-5-6-5"
               d="m 916.79393,-735.9558 c 0,0 -33.94034,1.06436 -33.94034,1.06436 0,0 0.0609,32.87411 0.0609,32.87411 0,0 33.92609,-1.46578 33.92609,-1.46578 0,0 -0.0467,-32.47269 -0.0467,-32.47269"
               style="fill:none;fill-opacity:1;fill-rule:evenodd;stroke:#ffffff;stroke-width:1.12433279;stroke-linecap:butt;stroke-linejoin:miter;stroke-miterlimit:4;stroke-dasharray:none;stroke-opacity:1" />
            <path
               inkscape:connector-curvature="0"
               id="rect3336-5-4"
               d="m 882.72698,-800.7159 c 0,0 -34.82129,0.26615 -34.82129,0.26615 0,0 0.076,33.34005 0.076,33.34005 0,0 34.8063,-0.67896 34.8063,-0.67896 0,0 -0.0611,-32.92724 -0.0611,-32.92724"
               style="fill:none;fill-opacity:1;fill-rule:evenodd;stroke:#ffffff;stroke-width:1.12433279;stroke-linecap:butt;stroke-linejoin:miter;stroke-miterlimit:4;stroke-dasharray:none;stroke-opacity:1" />
            <path
               inkscape:connector-curvature="0"
               id="rect3336-5-2-7"
               d="m 882.78795,-767.83738 c 0,0 -34.80632,0.67834 -34.80632,0.67834 0,0 0.076,33.31287 0.076,33.31287 0,0 34.79135,-1.09048 34.79135,-1.09048 0,0 -0.061,-32.90073 -0.061,-32.90073"
               style="fill:none;fill-opacity:1;fill-rule:evenodd;stroke:#ffffff;stroke-width:1.12433279;stroke-linecap:butt;stroke-linejoin:miter;stroke-miterlimit:4;stroke-dasharray:none;stroke-opacity:1" />
            <path
               inkscape:connector-curvature="0"
               id="rect3336-5-6-7"
               d="m 882.84904,-734.8913 c 0,0 -34.79132,1.09105 -34.79132,1.09105 0,0 0.0759,33.28563 0.0759,33.28563 0,0 34.77636,-1.50251 34.77636,-1.50251 0,0 -0.061,-32.87417 -0.061,-32.87417"
               style="fill:none;fill-opacity:1;fill-rule:evenodd;stroke:#ffffff;stroke-width:1.12433279;stroke-linecap:butt;stroke-linejoin:miter;stroke-miterlimit:4;stroke-dasharray:none;stroke-opacity:1" />
            <path
               inkscape:connector-curvature="0"
               id="path6402-7-9"
               d="m 927.26147,-752.467 c 0.004,3.32679 2.77699,5.94695 6.18513,5.85275 1.63363,-0.0452 3.19775,-0.7208 4.34907,-1.87761 1.15038,-1.15587 1.7952,-2.69827 1.79336,-4.28868 -0.002,-1.59047 -0.65025,-3.10015 -1.80338,-4.19763 -1.15413,-1.09845 -2.72,-1.69466 -4.35388,-1.65671 -3.40866,0.0792 -6.17466,2.84083 -6.1703,6.16788 0,0 0,0 0,0"
               style="fill:#ffffff;fill-opacity:1;stroke:none;stroke-width:2.07599998;stroke-miterlimit:4;stroke-dasharray:none;stroke-dashoffset:0;stroke-opacity:1" />
            <path
               inkscape:connector-curvature="0"
               id="path6402-7-2-28"
               d="m 927.21906,-784.85258 c 0.004,3.32943 2.77814,5.98453 6.18768,5.93072 3.40103,-0.0537 6.14878,-2.78374 6.14494,-6.09815 -0.002,-1.59172 -0.65052,-3.11028 -1.80412,-4.2223 -1.1546,-1.113 -2.72112,-1.72828 -4.35566,-1.70969 -3.41006,0.0388 -6.1772,2.76972 -6.17284,6.09942 0,0 0,0 0,0"
               style="fill:#ffffff;fill-opacity:1;stroke:none;stroke-width:2.07599998;stroke-miterlimit:4;stroke-dasharray:none;stroke-dashoffset:0;stroke-opacity:1" />
            <path
               inkscape:connector-curvature="0"
               id="path6402-7-2-9-7"
               d="m 927.30385,-720.10722 c 0.004,3.32415 2.77584,5.90941 6.18258,5.77489 1.63296,-0.0645 3.19644,-0.75815 4.34729,-1.92771 1.1499,-1.1686 1.79447,-2.71745 1.79263,-4.3066 -0.002,-1.58922 -0.64999,-3.09004 -1.80264,-4.173 -1.15366,-1.08391 -2.71889,-1.6611 -4.3521,-1.60381 -3.40726,0.11953 -6.17212,2.91182 -6.16776,6.23623 0,0 0,0 0,0"
               style="fill:#ffffff;fill-opacity:1;stroke:none;stroke-width:2.07599998;stroke-miterlimit:4;stroke-dasharray:none;stroke-dashoffset:0;stroke-opacity:1" />
            <path
               inkscape:connector-curvature="0"
               id="path6402-7"
               d="m 893.57038,-751.61009 c 0.003,1.61731 0.67381,3.15055 1.86461,4.26171 1.18975,1.11017 2.80021,1.70737 4.47631,1.66105 1.67407,-0.0463 3.27664,-0.73076 4.45598,-1.90217 1.17837,-1.17044 1.83852,-2.73197 1.836,-4.34189 -0.003,-1.60999 -0.66758,-3.138 -1.84966,-4.24861 -1.18313,-1.11159 -2.78801,-1.71468 -4.46234,-1.67579 -1.67636,0.0389 -3.2849,0.7182 -4.47094,1.88907 -1.18701,1.17184 -1.85274,2.73926 -1.84996,4.35663 0,0 0,0 0,0"
               style="fill:#ffffff;fill-opacity:1;stroke:none;stroke-width:2.07599998;stroke-miterlimit:4;stroke-dasharray:none;stroke-dashoffset:0;stroke-opacity:1" />
            <path
               inkscape:connector-curvature="0"
               id="path6402-7-2"
               d="m 893.51391,-784.395 c 0.006,3.3705 2.84952,6.05781 6.34359,6.00266 3.48524,-0.055 6.29987,-2.81914 6.29461,-6.17423 -0.003,-1.61128 -0.66785,-3.14838 -1.85043,-4.27389 -1.18363,-1.12651 -2.78918,-1.74913 -4.46421,-1.73009 -1.67707,0.0191 -3.28629,0.67976 -4.47282,1.83747 -1.18752,1.15867 -1.85353,2.71941 -1.85074,4.33808 0,0 0,0 0,0"
               style="fill:#ffffff;fill-opacity:1;stroke:none;stroke-width:2.07599998;stroke-miterlimit:4;stroke-dasharray:none;stroke-dashoffset:0;stroke-opacity:1" />
            <path
               inkscape:connector-curvature="0"
               id="path6402-7-2-9"
               d="m 893.62681,-718.85162 c 0.003,1.61601 0.67352,3.1401 1.86382,4.23627 1.18925,1.0952 2.79902,1.67285 4.47442,1.60669 1.67337,-0.0661 3.27527,-0.76902 4.45412,-1.95349 1.17787,-1.18349 1.83775,-2.75163 1.83523,-4.36027 -0.003,-1.6087 -0.66729,-3.12763 -1.84888,-4.22336 -1.18264,-1.0967 -2.78684,-1.68029 -4.46047,-1.62158 -1.67566,0.0588 -3.28352,0.75657 -4.46905,1.94059 -1.18652,1.185 -1.85197,2.75908 -1.84919,4.37515 0,0 0,0 0,0"
               style="fill:#ffffff;fill-opacity:1;stroke:none;stroke-width:2.07599998;stroke-miterlimit:4;stroke-dasharray:none;stroke-dashoffset:0;stroke-opacity:1" />
            <path
               inkscape:connector-curvature="0"
               id="path6402-7-6"
               d="m 859.03765,-750.73177 c 0.007,3.4098 2.92232,6.09338 6.50254,5.99445 1.71604,-0.0474 3.35852,-0.74097 4.56694,-1.92735 1.20741,-1.18538 1.88346,-2.76654 1.88022,-4.39647 -0.003,-1.62999 -0.68556,-3.17679 -1.8977,-4.30084 -1.21324,-1.12507 -2.8586,-1.73518 -4.57492,-1.6953 -3.58079,0.0832 -6.48439,2.91543 -6.47708,6.32551 0,0 0,0 0,0"
               style="fill:#ffffff;fill-opacity:1;stroke:none;stroke-width:2.07599998;stroke-miterlimit:4;stroke-dasharray:none;stroke-dashoffset:0;stroke-opacity:1" />
            <path
               inkscape:connector-curvature="0"
               id="path6402-7-2-2"
               d="m 858.96642,-783.92598 c 0.007,3.41257 2.92359,6.13286 6.50535,6.07636 1.71678,-0.0271 3.35995,-0.70168 4.5689,-1.87464 1.20792,-1.17198 1.88427,-2.74636 1.88103,-4.3776 -0.003,-1.63132 -0.68586,-3.18743 -1.89853,-4.32677 -1.21375,-1.14035 -2.85982,-1.77048 -4.57688,-1.75094 -3.58234,0.0408 -6.48719,2.84073 -6.47987,6.25359 0,0 0,0 0,0"
               style="fill:#ffffff;fill-opacity:1;stroke:none;stroke-width:2.07599998;stroke-miterlimit:4;stroke-dasharray:none;stroke-dashoffset:0;stroke-opacity:1" />
            <path
               inkscape:connector-curvature="0"
               id="path6402-7-2-9-0"
               d="m 859.10883,-717.56466 c 0.007,3.40702 2.92105,6.05394 6.49972,5.91266 1.71531,-0.0677 3.35708,-0.7802 4.56498,-1.97996 1.2069,-1.19876 1.88266,-2.7867 1.87943,-4.41531 -0.003,-1.62867 -0.68527,-3.16617 -1.8969,-4.27497 -1.21271,-1.1098 -2.85736,-1.69992 -4.57294,-1.63973 -3.57925,0.12559 -6.48161,2.98999 -6.47429,6.39731 0,0 0,0 0,0"
               style="fill:#ffffff;fill-opacity:1;stroke:none;stroke-width:2.07599998;stroke-miterlimit:4;stroke-dasharray:none;stroke-dashoffset:0;stroke-opacity:1" />
          </g>
        </g>
      </g>
    </g>
  </g>
</svg>
