<?xml version="1.0" encoding="UTF-8" standalone="no"?>
<!-- Created with Inkscape (http://www.inkscape.org/) -->

<svg
   xmlns:dc="http://purl.org/dc/elements/1.1/"
   xmlns:cc="http://creativecommons.org/ns#"
   xmlns:rdf="http://www.w3.org/1999/02/22-rdf-syntax-ns#"
   xmlns:svg="http://www.w3.org/2000/svg"
   xmlns="http://www.w3.org/2000/svg"
   xmlns:sodipodi="http://sodipodi.sourceforge.net/DTD/sodipodi-0.dtd"
   xmlns:inkscape="http://www.inkscape.org/namespaces/inkscape"
   id="svg2"
   version="1.1"
   inkscape:version="0.91pre3 r13670"
   xml:space="preserve"
   width="249.64436"
   height="175.70003"
   viewBox="0 0 249.64436 175.70003"
   sodipodi:docname="ruleta.svg"><metadata
     id="metadata8"><rdf:RDF><cc:Work
         rdf:about=""><dc:format>image/svg+xml</dc:format><dc:type
           rdf:resource="http://purl.org/dc/dcmitype/StillImage" /><dc:title></dc:title></cc:Work></rdf:RDF></metadata><defs
     id="defs6" /><sodipodi:namedview
     pagecolor="#ffffff"
     bordercolor="#666666"
     borderopacity="1"
     objecttolerance="10"
     gridtolerance="10"
     guidetolerance="10"
     inkscape:pageopacity="0"
     inkscape:pageshadow="2"
     inkscape:window-width="640"
     inkscape:window-height="480"
     id="namedview4"
     showgrid="false"
     showguides="false"
     fit-margin-top="0"
     fit-margin-left="0"
     fit-margin-right="0"
     fit-margin-bottom="0"
     inkscape:zoom="3.7446808"
     inkscape:cx="100.16456"
     inkscape:cy="112.3365"
     inkscape:current-layer="g10" /><g
     id="g10"
     inkscape:groupmode="layer"
     inkscape:label="ink_ext_XXXXXX"
     transform="matrix(1.25,0,0,-1.25,25.361414,168.50004)"><g
       id="g12"
       transform="scale(0.1,0.1)"><path
         d="m 105,115.5 12,12 12,12 12,12 12,12 12,12 12,12 12,12 12,12 12,12 11.5,11.5 12,12 12,12 12,12 12,12 12,12 12,12 12,12 12,12 12,12 12,12 12,12 12,12 12,12 12,12 12,12 12,12 12,12 12,12 12,12 11.5,11.5 12,12 12,12 12,12 12,12 12,12 12,12 12,12 12,12 12,12 12,12 12,12 12,12 12,12 12,12 12,12 12,12 12,12 12,12 12,12 11.5,11.5 12,12 12,12 12,12 12,12 12,12 12,12 12,12 12,12 12,12 12,12 12,12 12,12 12,12 12,12 12,12 12,12 12,12 12,12 12,12 11.5,11.5 12,12 12,12 12,12 12,12 12,12 12,12 12,12 12,12 12,12 12,12 12,12 12,12 12,12 12,12 12,12 12,12 12,12 12,12 12,12 11.5,11.5 12,12 12,12 12,12 12,12 12,12 12,12 12,12 12,12 12,12"
         style="fill:none;stroke:#ffffff;stroke-width:5;stroke-linecap:butt;stroke-linejoin:miter;stroke-miterlimit:3.79999995;stroke-dasharray:none;stroke-opacity:1"
         id="path14"
         inkscape:connector-curvature="0" /><path
         d="m 1345.5,708.5 -0.5,33 -3,33.5 -4,33 -6.5,33 -7.5,32 -9.5,32 -11,31.5 -13,31 -14.5,30 -15.5,29.5 -17.5,28.5 -19,27.5 -20.5,26.5 -21.5,25.5 -23,24 -24,23 -25.5,21.5 -26.5,20.5 -27.5,19 -28.5,17.5 -29.5,15.5 -30,14.5 -31,13 -31.5,11 -32,9.5 -32,7.5 -33,6.5 -33,4 -33.5,3 -33,0.5 -33.5,-0.5 -33.5,-3 -33,-4 -33,-6.5 -32,-7.5 -32,-9.5 -31.5,-11 -31,-13 -30,-14.5 -29.5,-15.5 -28.5,-17.5 -27.5,-19 -26.5,-20.5 -25.5,-21.5 -24,-23 -23,-24 -21.5,-25.5 -20.5,-26.5 -19,-27.5 L 156,1027 140.5,997.5 126,967.5 113,936.5 102,905 92.5,873 85,841 l -6.5,-33 -4,-33 -3,-33.5 -0.5,-33 0.5,-33.5 3,-33.5 4,-33 6.5,-33 7.5,-32 9.5,-32 11,-31.5 13,-31 14.5,-30 15.5,-29.5 17.5,-28.5 19,-27.5 20.5,-26.5 21.5,-25.5 23,-24 451,451"
         style="fill:#ff0000;fill-opacity:1;fill-rule:nonzero;stroke:none"
         id="path16"
         inkscape:connector-curvature="0" /><path
         d="m 1345.5,708.5 -0.5,33 -3,33.5 -4,33 -6.5,33 -7.5,32 -9.5,32 -11,31.5 -13,31 -14.5,30 -15.5,29.5 -17.5,28.5 -19,27.5 -20.5,26.5 -21.5,25.5 -23,24 -24,23 -25.5,21.5 -26.5,20.5 -27.5,19 -28.5,17.5 -29.5,15.5 -30,14.5 -31,13 -31.5,11 -32,9.5 -32,7.5 -33,6.5 -33,4 -33.5,3 -33,0.5 -33.5,-0.5 -33.5,-3 -33,-4 -33,-6.5 -32,-7.5 -32,-9.5 -31.5,-11 -31,-13 -30,-14.5 -29.5,-15.5 -28.5,-17.5 -27.5,-19 -26.5,-20.5 -25.5,-21.5 -24,-23 -23,-24 -21.5,-25.5 -20.5,-26.5 -19,-27.5 L 156,1027 140.5,997.5 126,967.5 113,936.5 102,905 92.5,873 85,841 l -6.5,-33 -4,-33 -3,-33.5 -0.5,-33 0.5,-33.5 3,-33.5 4,-33 6.5,-33 7.5,-32 9.5,-32 11,-31.5 13,-31 14.5,-30 15.5,-29.5 17.5,-28.5 19,-27.5 20.5,-26.5 21.5,-25.5 23,-24 451,451 637,0"
         style="fill:none;stroke:#000000;stroke-width:5;stroke-linecap:butt;stroke-linejoin:miter;stroke-miterlimit:3.79999995;stroke-dasharray:none;stroke-opacity:1"
         id="path18"
         inkscape:connector-curvature="0" /><path
         d="m 257.5,257.5 24,-23 25.5,-21.5 26.5,-20.5 27.5,-19 28.5,-17.5 29.5,-15.5 30,-14.5 31,-13 31.5,-11 32,-9.5 32,-7.5 33,-6.5 49.5,-5.5 50.5,635.5"
         style="fill:#218c21;fill-opacity:1;fill-rule:nonzero;stroke:none"
         id="path20"
         inkscape:connector-curvature="0" /><path
         d="m 257.5,257.5 24,-23 25.5,-21.5 26.5,-20.5 27.5,-19 28.5,-17.5 29.5,-15.5 30,-14.5 31,-13 31.5,-11 32,-9.5 32,-7.5 33,-6.5 49.5,-5.5 50.5,635.5 -451,-451"
         style="fill:none;stroke:#000000;stroke-width:5;stroke-linecap:butt;stroke-linejoin:miter;stroke-miterlimit:3.79999995;stroke-dasharray:none;stroke-opacity:1"
         id="path22"
         inkscape:connector-curvature="0" /><path
         d="m 658,73 33.5,-2 33.5,0 33.5,2 33,3.5 33,5 32.5,7 32.5,8.5 31.5,10.5 31,12 30.5,13.5 30,15 50,30.5 -354,530"
         style="fill:#bf00ff;fill-opacity:1;fill-rule:nonzero;stroke:none"
         id="path24"
         inkscape:connector-curvature="0" /><path
         d="m 658,73 33.5,-2 33.5,0 33.5,2 33,3.5 33,5 32.5,7 32.5,8.5 31.5,10.5 31,12 30.5,13.5 30,15 50,30.5 -354,530 L 658,73"
         style="fill:none;stroke:#000000;stroke-width:5;stroke-linecap:butt;stroke-linejoin:miter;stroke-miterlimit:3.79999995;stroke-dasharray:none;stroke-opacity:1"
         id="path26"
         inkscape:connector-curvature="0" /><path
         d="m 1062.5,178.5 27,19 26.5,20.5 25,22 24,23.5 22.5,24.5 21.5,25.5 20,27 18.5,27.5 17,29 15.5,29.5 17,38 -588.5,244"
         style="fill:#0000ff;fill-opacity:1;fill-rule:nonzero;stroke:none"
         id="path28"
         inkscape:connector-curvature="0" /><path
         d="m 1062.5,178.5 27,19 26.5,20.5 25,22 24,23.5 22.5,24.5 21.5,25.5 20,27 18.5,27.5 17,29 15.5,29.5 17,38 -588.5,244 354,-530"
         style="fill:none;stroke:#000000;stroke-width:5;stroke-linecap:butt;stroke-linejoin:miter;stroke-miterlimit:3.79999995;stroke-dasharray:none;stroke-opacity:1"
         id="path30"
         inkscape:connector-curvature="0" /><path
         d="m 1297,464.5 12,31 10.5,31.5 8.5,32.5 7,32.5 5,33 3.5,33 2,50 -637,0.5"
         style="fill:#ffa600;fill-opacity:1;fill-rule:nonzero;stroke:none"
         id="path32"
         inkscape:connector-curvature="0" /><path
         d="m 1297,464.5 12,31 10.5,31.5 8.5,32.5 7,32.5 5,33 3.5,33 2,50 -637,0.5 588.5,-244"
         style="fill:none;stroke:#000000;stroke-width:5;stroke-linecap:butt;stroke-linejoin:miter;stroke-miterlimit:3.79999995;stroke-dasharray:none;stroke-opacity:1"
         id="path34"
         inkscape:connector-curvature="0" /></g><text
       xml:space="preserve"
       style="font-style:normal;font-weight:normal;font-size:24px;line-height:125%;font-family:sans-serif;text-align:start;letter-spacing:0px;word-spacing:0px;text-anchor:start;fill:#000000;fill-opacity:1;stroke:none;stroke-width:1px;stroke-linecap:butt;stroke-linejoin:miter;stroke-opacity:1"
       x="29.111259"
       y="-122.8409"
       id="text4162"
       sodipodi:linespacing="125%"
       transform="scale(1,-1)"><tspan
         sodipodi:role="line"
         id="tspan4164"
         x="29.111259"
         y="-122.8409"
         style="font-style:normal;font-variant:normal;font-weight:normal;font-stretch:normal;font-size:12px;font-family:serif;-inkscape-font-specification:serif;text-align:end;text-anchor:end">$f_1=100$</tspan></text>
<text
       xml:space="preserve"
       style="font-style:normal;font-weight:normal;font-size:24px;line-height:125%;font-family:sans-serif;text-align:start;letter-spacing:0px;word-spacing:0px;text-anchor:start;fill:#000000;fill-opacity:1;stroke:none;stroke-width:1px;stroke-linecap:butt;stroke-linejoin:miter;stroke-opacity:1"
       x="1.3539596"
       y="-1.5564454"
       id="text4162-4"
       sodipodi:linespacing="125%"
       transform="scale(1,-1)"><tspan
         sodipodi:role="line"
         id="tspan4164-4"
         x="1.3539596"
         y="-1.5564454"
         style="font-style:normal;font-variant:normal;font-weight:normal;font-stretch:normal;font-size:12px;font-family:serif;-inkscape-font-specification:serif">f_2=18</tspan></text>
<text
       xml:space="preserve"
       style="font-style:normal;font-weight:normal;font-size:24px;line-height:125%;font-family:sans-serif;text-align:start;letter-spacing:0px;word-spacing:0px;text-anchor:start;fill:#000000;fill-opacity:1;stroke:none;stroke-width:1px;stroke-linecap:butt;stroke-linejoin:miter;stroke-opacity:1"
       x="77.408508"
       y="2.9299183"
       id="text4162-2"
       sodipodi:linespacing="125%"
       transform="scale(1,-1)"><tspan
         sodipodi:role="line"
         id="tspan4164-9"
         x="77.408508"
         y="2.9299183"
         style="font-style:normal;font-variant:normal;font-weight:normal;font-stretch:normal;font-size:12px;font-family:serif;-inkscape-font-specification:serif">f_3=17</tspan></text>
<text
       xml:space="preserve"
       style="font-style:normal;font-weight:normal;font-size:24px;line-height:125%;font-family:sans-serif;text-align:start;letter-spacing:0px;word-spacing:0px;text-anchor:start;fill:#000000;fill-opacity:1;stroke:none;stroke-width:1px;stroke-linecap:butt;stroke-linejoin:miter;stroke-opacity:1"
       x="122.0585"
       y="-21.638264"
       id="text4162-8"
       sodipodi:linespacing="125%"
       transform="scale(1,-1)"><tspan
         sodipodi:role="line"
         id="tspan4164-3"
         x="122.0585"
         y="-21.638264"
         style="font-style:normal;font-variant:normal;font-weight:normal;font-stretch:normal;font-size:12px;font-family:serif;-inkscape-font-specification:serif">f_4=15</tspan></text>
<text
       xml:space="preserve"
       style="font-style:normal;font-weight:normal;font-size:24px;line-height:125%;font-family:sans-serif;text-align:start;letter-spacing:0px;word-spacing:0px;text-anchor:start;fill:#000000;fill-opacity:1;stroke:none;stroke-width:1px;stroke-linecap:butt;stroke-linejoin:miter;stroke-opacity:1"
       x="136.79941"
       y="-54.110989"
       id="text4162-6"
       sodipodi:linespacing="125%"
       transform="scale(1,-1)"><tspan
         sodipodi:role="line"
         id="tspan4164-2"
         x="136.79941"
         y="-54.110989"
         style="font-style:normal;font-variant:normal;font-weight:normal;font-stretch:normal;font-size:12px;font-family:serif;-inkscape-font-specification:serif">f_5=10</tspan></text>
</g></svg>