<?xml version="1.0" encoding="UTF-8" standalone="no"?>
<!-- Created with Inkscape (http://www.inkscape.org/) -->

<svg
   xmlns:dc="http://purl.org/dc/elements/1.1/"
   xmlns:cc="http://creativecommons.org/ns#"
   xmlns:rdf="http://www.w3.org/1999/02/22-rdf-syntax-ns#"
   xmlns:svg="http://www.w3.org/2000/svg"
   xmlns="http://www.w3.org/2000/svg"
   xmlns:xlink="http://www.w3.org/1999/xlink"
   xmlns:sodipodi="http://sodipodi.sourceforge.net/DTD/sodipodi-0.dtd"
   xmlns:inkscape="http://www.inkscape.org/namespaces/inkscape"
   width="457.67511"
   height="425.90726"
   id="svg3897"
   version="1.1"
   inkscape:version="0.48+devel r9841 custom"
   sodipodi:docname="Nowy dokument 5">
  <defs
     id="defs3899">
    <radialGradient
       inkscape:collect="always"
       xlink:href="#linearGradient4029"
       id="radialGradient4035"
       cx="321.72525"
       cy="405.63663"
       fx="321.72525"
       fy="405.63663"
       r="45.850666"
       gradientTransform="matrix(1.2605348,-0.05060997,0.04693663,1.0140506,-102.85981,10.583096)"
       gradientUnits="userSpaceOnUse" />
    <linearGradient
       id="linearGradient4029">
      <stop
         style="stop-color:#ffffff;stop-opacity:1;"
         offset="0"
         id="stop4031" />
      <stop
         style="stop-color:#7bc8e2;stop-opacity:0;"
         offset="1"
         id="stop4033" />
    </linearGradient>
    <filter
       inkscape:collect="always"
       id="filter4057"
       x="-0.1134535"
       width="1.226907"
       y="-0.10899988"
       height="1.2179998"
       color-interpolation-filters="sRGB">
      <feGaussianBlur
         inkscape:collect="always"
         stdDeviation="1.4948703"
         id="feGaussianBlur4059" />
    </filter>
    <radialGradient
       inkscape:collect="always"
       xlink:href="#linearGradient5446-3"
       id="radialGradient5183"
       gradientUnits="userSpaceOnUse"
       gradientTransform="matrix(-0.72870929,1.4460835,-0.96846596,-0.3602187,348.94731,398.86407)"
       cx="24.210043"
       cy="317.09445"
       fx="24.210043"
       fy="317.09445"
       r="38.078896" />
    <linearGradient
       id="linearGradient5446-3">
      <stop
         id="stop5448-6"
         offset="0"
         style="stop-color:#424546;stop-opacity:1;" />
      <stop
         id="stop5450-0"
         offset="1"
         style="stop-color:#ffffff;stop-opacity:1;" />
    </linearGradient>
    <radialGradient
       inkscape:collect="always"
       xlink:href="#linearGradient5446-3"
       id="radialGradient5209"
       gradientUnits="userSpaceOnUse"
       gradientTransform="matrix(-0.72870929,1.4460835,-0.96846596,-0.3602187,348.94731,398.86407)"
       cx="24.210043"
       cy="317.09445"
       fx="24.210043"
       fy="317.09445"
       r="38.078896" />
    <linearGradient
       id="linearGradient3860">
      <stop
         id="stop3862"
         offset="0"
         style="stop-color:#424546;stop-opacity:1;" />
      <stop
         id="stop3864"
         offset="1"
         style="stop-color:#ffffff;stop-opacity:1;" />
    </linearGradient>
    <linearGradient
       inkscape:collect="always"
       xlink:href="#linearGradient5732"
       id="linearGradient5945"
       gradientUnits="userSpaceOnUse"
       gradientTransform="translate(172.94223,-43.427424)"
       x1="338.98026"
       y1="231.88896"
       x2="338.55859"
       y2="221.26927" />
    <linearGradient
       id="linearGradient5732"
       inkscape:collect="always">
      <stop
         id="stop5734"
         offset="0"
         style="stop-color:#ff0000;stop-opacity:1;" />
      <stop
         id="stop5736"
         offset="1"
         style="stop-color:#ff0000;stop-opacity:0;" />
    </linearGradient>
  </defs>
  <sodipodi:namedview
     id="base"
     pagecolor="#ffffff"
     bordercolor="#666666"
     borderopacity="1.0"
     inkscape:pageopacity="0.0"
     inkscape:pageshadow="2"
     inkscape:zoom="0.35"
     inkscape:cx="275.26613"
     inkscape:cy="177.23936"
     inkscape:document-units="px"
     inkscape:current-layer="layer1"
     showgrid="false"
     fit-margin-top="0"
     fit-margin-left="0"
     fit-margin-right="0"
     fit-margin-bottom="0"
     inkscape:window-width="552"
     inkscape:window-height="456"
     inkscape:window-x="20"
     inkscape:window-y="20"
     inkscape:window-maximized="0" />
  <metadata
     id="metadata3902">
    <rdf:RDF>
      <cc:Work
         rdf:about="">
        <dc:format>image/svg+xml</dc:format>
        <dc:type
           rdf:resource="http://purl.org/dc/dcmitype/StillImage" />
        <dc:title></dc:title>
      </cc:Work>
    </rdf:RDF>
  </metadata>
  <g
     inkscape:label="Layer 1"
     inkscape:groupmode="layer"
     id="layer1"
     transform="translate(-99.733871,-283.69426)">
    <g
       id="g5947"
       transform="matrix(2.5759101,0,0,2.4816654,-556.46339,-312.59761)">
      <path
         sodipodi:nodetypes="ccsssssssssssscsssssscsssscssssssssssccssssscsssccsscssssssssssscsssssssssssssssscsssssscsssssscccsssssssssssssccsssscssssssscsssscc"
         inkscape:connector-curvature="0"
         id="path3253"
         d="m 361.41916,240.32141 c -2.73509,-0.10684 -5.21873,0.0581 -7.51425,0.52996 -2.29551,0.47177 -4.37501,1.24017 -6.3215,2.3091 -1.9465,1.06893 -3.75881,2.44141 -5.44684,4.12611 -1.33973,1.33711 -2.47816,2.75182 -3.45894,4.31538 -0.98078,1.56355 -1.78903,3.27799 -2.46499,5.22387 -0.67596,1.94589 -1.24453,4.10252 -1.66983,6.58663 -0.4253,2.4841 -0.7254,5.30112 -0.95419,8.47933 -0.3724,5.17297 -0.82307,9.38784 -0.99395,9.38784 -0.17087,0 -4.61402,-4.09025 -9.85996,-9.085 -3.5208,-3.35221 -6.71417,-6.06967 -9.74069,-8.1765 -1.51326,-1.05343 -2.99016,-1.93425 -4.41313,-2.68765 -1.42296,-0.7534 -2.81972,-1.35608 -4.17458,-1.817 -1.35485,-0.46093 -2.66686,-0.77036 -3.9758,-0.94636 -1.30892,-0.17599 -2.61109,-0.21495 -3.89627,-0.1135 -1.28518,0.10139 -2.57289,0.31015 -3.85652,0.68138 -1.28361,0.37122 -2.55226,0.88065 -3.85651,1.51416 -1.72566,0.83821 -3.24813,1.74304 -4.53241,2.72551 -1.28427,0.98246 -2.33109,2.04413 -3.18063,3.17975 -0.84953,1.13561 -1.48693,2.37421 -1.90838,3.67185 -0.42145,1.29764 -0.63613,2.65755 -0.63613,4.12611 0,1.13224 0.0639,2.04439 0.31807,2.95262 0.25418,0.90824 0.70008,1.82362 1.5108,2.91477 1.62143,2.18232 4.6754,5.12997 10.33705,10.48561 3.61861,3.42301 6.60418,6.49688 8.66723,8.85788 1.03153,1.1805 1.82024,2.17171 2.34572,2.95262 0.52548,0.78091 0.77432,1.33579 0.71564,1.62773 -0.0781,0.38885 -0.28698,0.73565 -0.71564,1.02207 -0.42865,0.28642 -1.06282,0.53863 -1.9879,0.75708 -1.85015,0.43689 -4.83056,0.7639 -9.5419,1.13563 -4.1553,0.32785 -7.79572,0.86406 -11.01294,1.62772 -3.21721,0.76367 -6.00314,1.76876 -8.46843,3.06619 -1.23265,0.64872 -2.41913,1.35716 -3.4987,2.15769 -1.07957,0.80054 -2.07183,1.6852 -3.0216,2.64979 -1.89954,1.92919 -3.56907,4.1927 -5.08902,6.85161 -0.94377,1.65099 -1.70904,3.28648 -2.34571,4.88319 -0.63668,1.59671 -1.13849,3.16645 -1.47105,4.69392 -0.33254,1.52746 -0.52522,2.98567 -0.55661,4.42894 -0.0314,1.44326 0.091,2.85771 0.35782,4.20181 0.26681,1.34409 0.71024,2.63115 1.27226,3.86112 0.56202,1.22998 1.2529,2.41956 2.10717,3.52044 0.85426,1.10089 1.8383,2.10936 2.98184,3.06619 1.14355,0.95683 2.42666,1.85196 3.85652,2.64979 1.95451,1.09058 3.94185,1.9163 5.96369,2.46053 2.02185,0.54422 4.10215,0.79714 6.28175,0.79493 2.1796,-0.002 4.45034,-0.28404 6.87812,-0.83279 2.42777,-0.54875 5.02619,-1.36516 7.79254,-2.46052 2.28571,-0.90504 4.34955,-1.62106 6.242,-2.11983 1.89245,-0.49878 3.61045,-0.77695 5.12877,-0.87065 1.51832,-0.0936 2.85225,0.0305 4.01555,0.34069 1.16331,0.31021 2.15443,0.80122 2.98184,1.51416 0.8997,0.77522 1.49324,1.68502 1.82887,2.80121 0.33564,1.1162 0.38057,2.4592 0.11921,4.12611 -0.2613,1.6669 -0.81849,3.62932 -1.70959,6.05667 -0.8911,2.42734 -2.10394,5.30893 -3.65773,8.70646 -1.59004,3.4768 -2.83536,6.42534 -3.73724,9.00929 -0.90188,2.58396 -1.46228,4.78108 -1.70959,6.73805 -0.24732,1.95697 -0.17486,3.70372 0.19879,5.29958 0.37364,1.59586 1.06664,3.04188 2.02765,4.5425 0.70452,1.10012 1.46303,2.10983 2.34572,3.02834 0.8827,0.9185 1.87028,1.76411 2.98184,2.53623 1.11157,0.77211 2.34612,1.49677 3.73724,2.15768 1.39112,0.66092 2.93032,1.26992 4.65168,1.85486 1.57495,0.53519 2.86729,0.9205 3.97579,1.17348 1.1085,0.25297 2.06954,0.34617 3.0216,0.30283 0.95207,-0.0434 1.87622,-0.21404 2.98185,-0.56781 1.10562,-0.35377 2.36686,-0.87371 3.93603,-1.55202 1.59742,-0.69051 3.09286,-1.57409 4.57216,-2.76336 1.4793,-1.18926 2.95337,-2.68293 4.45289,-4.5425 1.49951,-1.85957 3.03337,-4.11234 4.69143,-6.81375 1.65807,-2.70141 3.45215,-5.86232 5.40708,-9.57711 2.52043,-4.78936 4.57006,-8.43299 6.44078,-11.05342 0.93536,-1.31021 1.83377,-2.37596 2.70354,-3.17975 0.86976,-0.80379 1.71556,-1.34435 2.58426,-1.66558 0.86871,-0.32124 1.73156,-0.40243 2.66378,-0.26498 0.93222,0.13745 1.92156,0.48766 2.98185,1.05992 2.12055,1.14452 4.57365,3.12684 7.59376,5.86739 2.1693,1.96851 4.11496,3.62016 5.88417,4.99675 1.76921,1.3766 3.37768,2.50214 4.89022,3.36903 1.51255,0.86689 2.93432,1.49117 4.33362,1.93056 1.3993,0.43939 2.74509,0.663 4.17458,0.75708 2.35767,0.15517 4.31047,0.22629 5.96368,0.18927 1.65322,-0.0371 3.0372,-0.16027 4.2541,-0.45425 1.2169,-0.29397 2.2512,-0.74703 3.29991,-1.36275 1.0487,-0.61572 2.11151,-1.42042 3.26015,-2.42266 1.00618,-0.87795 1.78933,-1.59624 2.42523,-2.30911 0.6359,-0.71287 1.10784,-1.40861 1.47104,-2.15769 0.72641,-1.49814 1.01125,-3.28168 1.2325,-6.13237 0.18407,-2.37181 0.0791,-4.46741 -0.35782,-6.39736 -0.43701,-1.92994 -1.21228,-3.68746 -2.38548,-5.33744 -1.17319,-1.64998 -2.74645,-3.19985 -4.77095,-4.73177 -2.0245,-1.53193 -4.48356,-3.04245 -7.47449,-4.61821 -2.67208,-1.40778 -4.92728,-2.68335 -6.75884,-3.93683 -1.83156,-1.25349 -3.25834,-2.47298 -4.37337,-3.70971 -1.11503,-1.23674 -1.90275,-2.50362 -2.42523,-3.86113 -0.52249,-1.35751 -0.78098,-2.81313 -0.83492,-4.42894 l -0.15903,-4.65606 13.35866,-0.68138 c 4.43288,-0.22783 8.30111,-0.67811 11.68882,-1.36275 3.38772,-0.68463 6.28726,-1.6028 8.74675,-2.80121 1.22974,-0.59921 2.35981,-1.26794 3.37942,-2.00627 1.01961,-0.73833 1.95895,-1.53808 2.78305,-2.42267 0.8241,-0.88458 1.54349,-1.83896 2.18669,-2.87691 0.6432,-1.03796 1.19291,-2.17057 1.66983,-3.36902 0.61132,-1.53619 0.98382,-3.15024 1.15298,-4.80749 0.16916,-1.65725 0.14229,-3.34569 -0.0795,-5.0346 -0.2218,-1.68891 -0.63117,-3.36556 -1.19273,-4.99675 -0.56156,-1.6312 -1.29682,-3.20983 -2.14693,-4.69392 -0.85011,-1.48409 -1.81487,-2.87852 -2.90233,-4.12611 -1.08746,-1.24758 -2.26485,-2.37161 -3.53845,-3.29331 -1.2736,-0.9217 -2.64676,-1.65126 -4.05531,-2.15769 -1.40855,-0.50642 -2.88109,-0.79318 -4.37337,-0.79493 -1.05017,-10e-4 -1.99062,0.12064 -2.98184,0.37854 -0.99123,0.25787 -2.02226,0.66049 -3.2204,1.32489 -2.39625,1.3288 -5.47833,3.61783 -10.2973,7.45728 -3.85214,3.06915 -7.28872,5.38877 -10.09851,6.81375 -1.40488,0.71249 -2.64485,1.1835 -3.69748,1.43846 -1.05264,0.25496 -1.945,0.27141 -2.58427,0.0378 -0.61291,-0.22394 -1.20108,-0.73604 -1.74935,-1.51417 -0.54826,-0.77812 -1.04647,-1.82085 -1.47104,-2.99048 -0.42456,-1.16962 -0.75213,-2.46269 -0.99395,-3.86112 -0.24181,-1.39844 -0.39758,-2.88868 -0.39758,-4.35323 0,-1.26623 0.50492,-3.74278 1.31202,-6.70019 0.80709,-2.95741 1.91633,-6.39409 3.14087,-9.61496 1.48802,-3.91386 2.62526,-7.27459 3.37942,-10.18278 0.75417,-2.90818 1.13004,-5.3473 1.15298,-7.49512 0.0229,-2.14783 -0.32803,-4.00747 -1.0337,-5.64028 -0.70567,-1.6328 -1.74897,-3.06582 -3.18064,-4.42893 -1.44763,-1.37832 -2.99875,-2.46276 -4.77095,-3.33117 -1.77219,-0.86842 -3.78238,-1.52839 -6.12271,-2.00627 -3.26523,-0.66673 -6.2502,-1.02884 -8.98529,-1.13563 z"
         style="fill:#7bc8e2;fill-opacity:1;fill-rule:evenodd;stroke:none" />
      <path
         sodipodi:nodetypes="ssssssssssssssssssssssssscsssssssssssssssssssssssccsssssssssssssssssss"
         inkscape:connector-curvature="0"
         id="path3246"
         d="m 317.70393,410.38736 c -6.88545,-2.33977 -10.92618,-5.14653 -13.74426,-9.547 -3.84403,-6.00251 -3.12356,-11.70339 3.23661,-25.61062 6.21514,-13.59008 6.9973,-18.57979 3.39852,-21.68067 -3.30962,-2.85176 -9.22996,-2.48642 -18.37277,1.13373 -11.06548,4.38146 -19.06054,4.38957 -26.87857,0.0273 -11.43885,-6.38263 -13.76332,-18.09294 -6.21313,-31.30086 6.07976,-10.63566 14.45161,-15.04159 31.07282,-16.35303 9.42268,-0.74346 11.95561,-1.34159 12.26824,-2.897 0.23472,-1.16776 -4.51622,-6.60487 -11.75342,-13.45088 -11.32332,-10.71128 -12.14738,-11.82039 -12.14738,-16.34937 0,-5.87422 3.34497,-10.34558 10.2476,-13.69842 10.43395,-5.06812 19.85304,-1.86374 33.93625,11.5451 5.24595,4.99476 9.67788,9.08137 9.84876,9.08137 0.17087,0 0.61537,-4.23242 0.98777,-9.40539 0.91517,-12.71286 3.18581,-19.24932 8.54476,-24.59773 6.75208,-6.7388 15.20975,-8.47698 28.27064,-5.81005 4.68068,0.95577 7.98151,2.57325 10.87677,5.32987 5.72666,5.45244 5.65587,12.08113 -0.29616,27.73656 -2.44909,6.44175 -4.45289,13.78429 -4.45289,16.31675 0,5.85821 2.17072,11.83823 4.62238,12.73397 2.55707,0.93426 8.6655,-2.16362 16.3698,-8.30193 9.63793,-7.6789 12.30364,-9.15713 16.50432,-9.15218 11.93824,0.014 22.01619,17.60761 17.12565,29.89712 -3.81536,9.58764 -12.71779,13.92545 -30.44934,14.83677 l -13.35866,0.68659 0.15529,4.6517 c 0.21577,6.46323 3.6839,10.30995 14.37224,15.94107 11.96369,6.30304 15.73552,11.60776 14.99923,21.09498 -0.44247,5.7014 -1.1145,7.08737 -5.13925,10.59917 -4.59457,4.00899 -7.31707,4.6667 -16.74778,4.046 -5.71796,-0.37632 -10.62073,-3.18626 -19.29796,-11.06028 -12.08042,-10.96222 -14.89874,-9.92006 -24.9805,9.23737 -7.81974,14.85914 -12.71117,20.92504 -19.10083,23.68709 -6.27669,2.71321 -7.60499,2.77368 -13.90475,0.63294 z m 15.71721,-8.70373 c 1.95978,-1.78769 6.85863,-9.26485 10.88635,-16.61594 10.59105,-19.32998 16.63003,-24.17097 24.99478,-20.03646 1.52841,0.75546 6.25033,4.5188 10.49315,8.363 8.52022,7.7197 15.30976,10.46047 22.66058,9.14748 5.67712,-1.01404 8.42893,-4.64327 8.42893,-11.11655 0,-6.51823 -3.01971,-10.08993 -13.05168,-15.43751 -12.14624,-6.47458 -16.21015,-11.56845 -16.21015,-20.31848 0,-7.88223 2.37137,-9.56285 13.49323,-9.56285 18.68345,0 28.4456,-4.16659 31.01043,-13.23556 1.44972,-5.12606 0.0915,-10.44743 -4.14339,-16.23371 -5.13977,-7.02257 -8.89644,-6.43008 -21.27232,3.35496 -16.88835,13.35286 -25.81767,12.25168 -29.27623,-3.61039 -1.52025,-6.9724 -1.34429,-7.82746 6.53304,-31.74375 2.06401,-6.23415 4.14265,-7.16879 0.28872,-12.11334 -3.47208,-4.45467 -10.79775,-6.67417 -20.03647,-6.07057 -6.67945,0.43638 -7.95839,0.96639 -11.69178,4.84515 -6.02374,6.25831 -7.30588,12.18351 -6.5545,30.29069 0.35249,8.49448 0.1675,15.44451 -0.41105,15.44451 -0.57857,0 -5.72129,-5.04218 -11.42823,-11.20484 -12.29229,-13.27379 -16.96132,-17.13219 -24.65045,-20.3706 -5.16673,-2.17605 -6.15324,-2.24571 -10.01963,-0.70758 -5.65136,2.24822 -9.77197,7.28058 -8.84021,10.79625 0.39519,1.4911 6.06495,7.66764 12.59946,13.72566 10.00496,9.27536 11.88094,11.61401 11.88094,14.81091 0,5.49513 -3.84023,7.32144 -18.09509,8.60551 -13.49272,1.2154 -18.09561,2.96033 -23.29438,8.83068 -5.17954,5.84866 -7.32047,11.57184 -6.60131,17.64674 0.75085,6.34248 4.63246,10.67676 11.25307,12.56537 5.16634,1.47375 8.52261,0.8947 22.03067,-3.80089 11.65385,-4.05105 20.81196,-1.43917 23.64867,6.74455 1.82844,5.27497 0.83882,9.48319 -5.28326,22.46625 -6.0907,12.9165 -6.44221,18.60313 -1.43192,23.16493 7.21566,6.56973 15.80972,7.1052 22.09003,1.37638 z"
         style="fill:#000000" />
      <path
         transform="matrix(0.77731093,0,0,0.84444445,94.560305,-13.556655)"
         d="m 367.57592,405.63663 c 0,23.93945 -20.52805,43.34622 -45.85067,43.34622 -25.32262,0 -45.85067,-19.40677 -45.85067,-43.34622 0,-23.93946 20.52805,-43.34622 45.85067,-43.34622 25.32262,0 45.85067,19.40676 45.85067,43.34622 z"
         sodipodi:ry="43.346218"
         sodipodi:rx="45.850666"
         sodipodi:cy="405.63663"
         sodipodi:cx="321.72525"
         id="path3259"
         style="fill:url(#radialGradient4035);fill-opacity:1;fill-rule:evenodd;stroke:none"
         sodipodi:type="arc" />
      <path
         sodipodi:nodetypes="zcscz"
         inkscape:connector-curvature="0"
         id="path4040"
         d="m 262.77309,337.45375 c -0.008,17.94135 21.8502,11.59397 31.62254,9.20096 -9.92837,-1.84973 -22.38389,0.43446 -22.38389,-8.82596 0,-13.27866 9.81163,-19.66533 21.23934,-20.3434 -13.10464,-2.634 -30.46974,2.02704 -30.47799,19.9684 z"
         style="opacity:0.51132687;fill:#ffffff;fill-opacity:1;fill-rule:evenodd;stroke:none;filter:url(#filter4057)" />
      <path
         transform="matrix(0.55970589,-0.82869133,0.82869133,0.55970589,-107.99565,265.65258)"
         style="opacity:0.4304207;fill:#ffffff;fill-opacity:1;fill-rule:evenodd;stroke:none;filter:url(#filter4057)"
         d="m 126.77202,429.71407 c -0.68846,11.4267 21.8502,11.59397 31.62255,9.20096 -9.92838,-1.84973 -22.59955,0.11517 -22.59955,-9.14525 0,-13.27866 11.32958,-16.04108 22.7573,-16.71915 -13.10464,-2.634 -31.09184,5.23674 -31.7803,16.66344 z"
         id="path4061"
         inkscape:connector-curvature="0"
         sodipodi:nodetypes="zcscz" />
      <path
         sodipodi:nodetypes="zcscz"
         inkscape:connector-curvature="0"
         id="path4063"
         d="m 126.77202,429.71407 c -0.68846,11.4267 21.74588,9.12905 31.51823,6.73604 -9.92838,-1.84973 -24.34208,1.63438 -24.34208,-7.62604 0,-13.27866 12.91589,-11.29001 24.34361,-11.96808 -13.10464,-2.634 -30.8313,1.43138 -31.51976,12.85808 z"
         style="opacity:0.4304207;fill:#ffffff;fill-opacity:1;fill-rule:evenodd;stroke:none;filter:url(#filter4057)"
         transform="matrix(-0.7537555,-0.65715496,0.65715496,-0.7537555,220.38228,784.42006)" />
      <path
         sodipodi:nodetypes="zcscz"
         inkscape:connector-curvature="0"
         id="path4065"
         d="m 126.77202,429.71407 c 1.97091,19.51213 21.8502,11.59397 31.62255,9.20096 -9.92838,-1.84973 -22.59955,0.11517 -22.59955,-9.14525 0,-13.27866 11.32958,-16.04108 22.7573,-16.71915 -13.10464,-2.634 -33.75121,-2.84869 -31.7803,16.66344 z"
         style="opacity:0.4304207;fill:#ffffff;fill-opacity:1;fill-rule:evenodd;stroke:none;filter:url(#filter4057)"
         transform="matrix(-0.39716296,0.91774811,-0.91774811,-0.39716296,809.02752,302.22356)" />
      <path
         transform="matrix(-0.98958285,0.14396453,-0.14396453,-0.98958285,682.21019,638.55893)"
         style="opacity:0.51132687;fill:#ffffff;fill-opacity:1;fill-rule:evenodd;stroke:none;filter:url(#filter4057)"
         d="m 206.91436,366.91021 c 3.43057,15.7161 22.08608,4.61988 31.85843,2.22687 -9.92838,-1.84973 -20.38053,5.39818 -22.61978,-1.85187 -3.91859,-12.6873 13.44408,-12.51783 24.8718,-13.1959 -13.10465,-2.634 -37.54102,-2.8952 -34.11045,12.8209 z"
         id="path4067"
         inkscape:connector-curvature="0"
         sodipodi:nodetypes="zcscz" />
      <path
         transform="matrix(0.37040751,0.92886935,-0.92886935,0.37040751,556.24215,52.229836)"
         sodipodi:nodetypes="zcscz"
         inkscape:connector-curvature="0"
         id="path4069"
         d="m 101.98777,326.02908 c 1.55945,11.92963 20.19246,0.14798 29.96481,-2.24503 -9.92838,-1.84973 -20.2311,5.75451 -22.09187,-3.31704 -2.50305,-12.20278 17.33178,-12.51845 22.74338,-18.91402 -15.17295,3.5929 -32.17577,12.54646 -30.61632,24.47609 z"
         style="opacity:0.51132687;fill:#ffffff;fill-opacity:1;fill-rule:evenodd;stroke:none;filter:url(#filter4057)" />
      <g
         transform="translate(93.802795,0.99124509)"
         id="g5187">
        <path
           sodipodi:type="arc"
           style="fill:#000000;fill-opacity:1;fill-rule:evenodd;stroke:none"
           id="path5185"
           sodipodi:cx="233.13028"
           sodipodi:cy="322.78644"
           sodipodi:rx="18.110947"
           sodipodi:ry="13.615322"
           d="m 251.24123,322.78644 c 0,7.51953 -8.10855,13.61532 -18.11095,13.61532 -10.0024,0 -18.11095,-6.09579 -18.11095,-13.61532 0,-7.51954 8.10855,-13.61532 18.11095,-13.61532 10.0024,0 18.11095,6.09578 18.11095,13.61532 z"
           transform="matrix(0.85106383,0,0,1.1886792,32.024157,-65.013386)" />
        <g
           transform="matrix(-0.17109668,0,0,0.1822585,309.50337,260.08688)"
           id="g5173">
          <path
             sodipodi:type="arc"
             style="fill:url(#radialGradient5183);fill-opacity:1;fill-rule:evenodd;stroke:none"
             id="path5175"
             sodipodi:cx="12.363277"
             sodipodi:cy="336.77567"
             sodipodi:rx="38.078896"
             sodipodi:ry="33.133583"
             d="m 50.442173,336.77567 c 0,18.29917 -17.048502,33.13358 -38.078896,33.13358 -21.0303929,0 -38.078895,-14.83441 -38.078895,-33.13358 0,-18.29918 17.0485021,-33.13359 38.078895,-33.13359 21.030394,0 38.078896,14.83441 38.078896,33.13359 z"
             transform="matrix(1.9617419,0,0,2.2488556,439.12752,-436.94139)" />
          <path
             transform="matrix(2.8543205,0,0,3.1356966,329.59555,-1059.0342)"
             d="m 60.332793,440.13269 c 0,7.10117 -5.978046,12.85781 -13.35234,12.85781 -7.374293,0 -13.352339,-5.75664 -13.352339,-12.85781 0,-7.10117 5.978046,-12.85781 13.352339,-12.85781 7.374294,0 13.35234,5.75664 13.35234,12.85781 z"
             sodipodi:ry="12.857809"
             sodipodi:rx="13.35234"
             sodipodi:cy="440.13269"
             sodipodi:cx="46.980453"
             id="path5177"
             style="fill:#ffffff;fill-opacity:1;fill-rule:evenodd;stroke:none"
             sodipodi:type="arc" />
          <path
             sodipodi:type="arc"
             style="fill:#000000;fill-opacity:1;fill-rule:evenodd;stroke:none"
             id="path5179"
             sodipodi:cx="46.980453"
             sodipodi:cy="440.13269"
             sodipodi:rx="13.35234"
             sodipodi:ry="12.857809"
             d="m 60.332793,440.13269 c 0,7.10117 -5.978046,12.85781 -13.35234,12.85781 -7.374293,0 -13.352339,-5.75664 -13.352339,-12.85781 0,-7.10117 5.978046,-12.85781 13.352339,-12.85781 7.374294,0 13.35234,5.75664 13.35234,12.85781 z"
             transform="matrix(2.5486497,0,0,2.7998931,343.99438,-911.814)" />
          <path
             sodipodi:type="arc"
             style="fill:#ffffff;fill-opacity:1;fill-rule:evenodd;stroke:#000000;stroke-width:5;stroke-linecap:round;stroke-linejoin:round;stroke-miterlimit:4;stroke-opacity:1;stroke-dasharray:none;stroke-dashoffset:0"
             id="path5181"
             sodipodi:cx="96.51342"
             sodipodi:cy="289.34668"
             sodipodi:rx="11.889334"
             sodipodi:ry="12.588707"
             d="m 108.40275,289.34668 c 0,6.95255 -5.32303,12.58871 -11.88933,12.58871 -6.566298,0 -11.889334,-5.63616 -11.889334,-12.58871 0,-6.95255 5.323036,-12.58871 11.889334,-12.58871 6.5663,0 11.88933,5.63616 11.88933,12.58871 z"
             transform="translate(384.65492,18.183687)" />
        </g>
      </g>
      <g
         id="g5195"
         transform="translate(127.46377,-13.689845)">
        <path
           transform="matrix(0.85106383,0,0,1.1886792,32.024157,-65.013386)"
           d="m 251.24123,322.78644 c 0,7.51953 -8.10855,13.61532 -18.11095,13.61532 -10.0024,0 -18.11095,-6.09579 -18.11095,-13.61532 0,-7.51954 8.10855,-13.61532 18.11095,-13.61532 10.0024,0 18.11095,6.09578 18.11095,13.61532 z"
           sodipodi:ry="13.615322"
           sodipodi:rx="18.110947"
           sodipodi:cy="322.78644"
           sodipodi:cx="233.13028"
           id="path5197"
           style="fill:#000000;fill-opacity:1;fill-rule:evenodd;stroke:none"
           sodipodi:type="arc" />
        <g
           id="g5199"
           transform="matrix(-0.17109668,0,0,0.1822585,309.50337,260.08688)">
          <path
             transform="matrix(1.9617419,0,0,2.2488556,439.12752,-436.94139)"
             d="m 50.442173,336.77567 c 0,18.29917 -17.048502,33.13358 -38.078896,33.13358 -21.0303929,0 -38.078895,-14.83441 -38.078895,-33.13358 0,-18.29918 17.0485021,-33.13359 38.078895,-33.13359 21.030394,0 38.078896,14.83441 38.078896,33.13359 z"
             sodipodi:ry="33.133583"
             sodipodi:rx="38.078896"
             sodipodi:cy="336.77567"
             sodipodi:cx="12.363277"
             id="path5201"
             style="fill:url(#radialGradient5209);fill-opacity:1;fill-rule:evenodd;stroke:none"
             sodipodi:type="arc" />
          <path
             sodipodi:type="arc"
             style="fill:#ffffff;fill-opacity:1;fill-rule:evenodd;stroke:none"
             id="path5203"
             sodipodi:cx="46.980453"
             sodipodi:cy="440.13269"
             sodipodi:rx="13.35234"
             sodipodi:ry="12.857809"
             d="m 60.332793,440.13269 c 0,7.10117 -5.978046,12.85781 -13.35234,12.85781 -7.374293,0 -13.352339,-5.75664 -13.352339,-12.85781 0,-7.10117 5.978046,-12.85781 13.352339,-12.85781 7.374294,0 13.35234,5.75664 13.35234,12.85781 z"
             transform="matrix(2.8543205,0,0,3.1356966,329.59555,-1059.0342)" />
          <path
             transform="matrix(2.5486497,0,0,2.7998931,343.99438,-911.814)"
             d="m 60.332793,440.13269 c 0,7.10117 -5.978046,12.85781 -13.35234,12.85781 -7.374293,0 -13.352339,-5.75664 -13.352339,-12.85781 0,-7.10117 5.978046,-12.85781 13.352339,-12.85781 7.374294,0 13.35234,5.75664 13.35234,12.85781 z"
             sodipodi:ry="12.857809"
             sodipodi:rx="13.35234"
             sodipodi:cy="440.13269"
             sodipodi:cx="46.980453"
             id="path5205"
             style="fill:#000000;fill-opacity:1;fill-rule:evenodd;stroke:none"
             sodipodi:type="arc" />
          <path
             transform="translate(384.65492,18.183687)"
             d="m 108.40275,289.34668 c 0,6.95255 -5.32303,12.58871 -11.88933,12.58871 -6.566298,0 -11.889334,-5.63616 -11.889334,-12.58871 0,-6.95255 5.323036,-12.58871 11.889334,-12.58871 6.5663,0 11.88933,5.63616 11.88933,12.58871 z"
             sodipodi:ry="12.588707"
             sodipodi:rx="11.889334"
             sodipodi:cy="289.34668"
             sodipodi:cx="96.51342"
             id="path5207"
             style="fill:#ffffff;fill-opacity:1;fill-rule:evenodd;stroke:#000000;stroke-width:5;stroke-linecap:round;stroke-linejoin:round;stroke-miterlimit:4;stroke-opacity:1;stroke-dasharray:none;stroke-dashoffset:0"
             sodipodi:type="arc" />
        </g>
      </g>
      <g
         transform="matrix(0.59843356,0,0,1.0185604,38.692755,177.87486)"
         id="g3256">
        <path
           style="fill:#000000;fill-opacity:1;stroke:none"
           d="m 462.80838,154.74181 c -0.87348,-0.008 -2.99016,1.51797 -5.14489,3.77291 l -2.02365,2.12656 c -2.46255,2.57707 -3.98861,5.09124 -3.42993,5.62508 0.55868,0.53383 2.99104,-1.09295 5.45358,-3.67002 l 1.37197,-1.44057 0,0.34299 c 7.34615,9.10967 20.0584,10.73349 27.91348,19.04626 17.51685,18.53749 33.39723,14.23619 47.28549,-0.8672 7.70254,-8.37646 21.17405,-9.706 30.30553,-18.14482 l 1.44057,1.50917 c 2.46254,2.57708 4.8949,4.23816 5.45358,3.70432 0.55867,-0.53384 -0.96738,-3.048 -3.42993,-5.62508 l -2.02365,-2.12655 c -2.46255,-2.57708 -4.89491,-4.23816 -5.45358,-3.70432 -0.45254,0.43242 0.48629,2.17487 2.16085,4.18451 -31.96217,25.9122 -78.1997,25.68937 -102.14317,0.0342 1.93544,-2.21311 3.06128,-4.19758 2.57244,-4.66469 -0.0698,-0.0667 -0.18391,-0.10186 -0.30869,-0.10285 z"
           id="path5675"
           inkscape:connector-curvature="0"
           sodipodi:nodetypes="cccscccssccsccsccccc" />
        <path
           style="fill:url(#linearGradient5945);fill-opacity:1;stroke:none"
           d="m 489.83355,179.74996 c 13.551,2.23835 29.20964,1.43804 41.62915,-0.84958 0.2696,-1.07841 -16.91847,23.92082 -41.62915,0.84958 z"
           id="path5722"
           inkscape:connector-curvature="0"
           sodipodi:nodetypes="ccc" />
      </g>
    </g>
  </g>
</svg>
