<?xml version="1.0" encoding="UTF-8" standalone="no"?>
<!-- Created with Inkscape (http://www.inkscape.org/) -->

<svg
   xmlns:dc="http://purl.org/dc/elements/1.1/"
   xmlns:cc="http://creativecommons.org/ns#"
   xmlns:rdf="http://www.w3.org/1999/02/22-rdf-syntax-ns#"
   xmlns:svg="http://www.w3.org/2000/svg"
   xmlns="http://www.w3.org/2000/svg"
   xmlns:sodipodi="http://sodipodi.sourceforge.net/DTD/sodipodi-0.dtd"
   xmlns:inkscape="http://www.inkscape.org/namespaces/inkscape"
   width="52.469376mm"
   height="17.302425mm"
   viewBox="0 0 185.91511 61.307806"
   id="svg11254"
   version="1.1"
   inkscape:version="0.91pre3 r13670"
   sodipodi:docname="dnaarrow.svg">
  <defs
     id="defs11256" />
  <sodipodi:namedview
     id="base"
     pagecolor="#ffffff"
     bordercolor="#666666"
     borderopacity="1.0"
     inkscape:pageopacity="0.0"
     inkscape:pageshadow="2"
     inkscape:zoom="0.35"
     inkscape:cx="-396.32815"
     inkscape:cy="-109.3461"
     inkscape:document-units="px"
     inkscape:current-layer="layer1"
     showgrid="false"
     fit-margin-top="0"
     fit-margin-left="0"
     fit-margin-right="0"
     fit-margin-bottom="0" />
  <metadata
     id="metadata11259">
    <rdf:RDF>
      <cc:Work
         rdf:about="">
        <dc:format>image/svg+xml</dc:format>
        <dc:type
           rdf:resource="http://purl.org/dc/dcmitype/StillImage" />
        <dc:title></dc:title>
      </cc:Work>
    </rdf:RDF>
  </metadata>
  <g
     inkscape:label="Vrstva 1"
     inkscape:groupmode="layer"
     id="layer1"
     transform="translate(-335.61387,-361.7083)">
    <g
       transform="matrix(0.05375038,0.72957786,-0.9689148,-0.023942,568.6798,342.34929)"
       id="g2542-6-3-6">
      <g
         transform="translate(-507.1312,-325.30702)"
         id="g4954-8-2-4"
         style="display:inline">
        <path
           inkscape:connector-curvature="0"
           d="m 589.54304,429.99246 c 0,0 6.59732,14.31841 -8.52166,21.15588 -16.86933,7.62906 -33.87949,15.02537 -38.23108,25.625 -2.23174,8.60323 -1.82532,15.22783 0.55973,21.19289 12.61843,14.09457 13.83066,12.49419 20.74599,17.16082 0,-0.14504 -21.40875,-10.69315 -18.98563,-20.19133 5.57745,-21.86258 24.96186,-24.6292 46.74256,-34.54075 17.40657,-7.31591 8.16652,-29.87705 8.16652,-29.87705 l 18.21476,14.87633 -25.06143,-64.4635 -21.57162,63.33981 z"
           id="path4958-2-2-9"
           style="display:inline;fill:#468fe7;fill-opacity:1;fill-rule:nonzero;stroke:#000000;stroke-width:1.5;stroke-linecap:round;stroke-linejoin:miter;stroke-miterlimit:4;stroke-dashoffset:0;stroke-opacity:1"
           sodipodi:nodetypes="cccccscccccc" />
        <path
           inkscape:connector-curvature="0"
           d="m 580.14658,508.20401 c 0,0 -9.72189,-2.74757 -17.71932,-8.2458 -7.99742,-5.49823 -13.7653,-13.24204 -13.93788,-13.38818 -0.32784,0.1753 -2.74883,5.78524 -3.37899,8.36569 -2.10206,8.60772 18.98563,20.04629 19.02272,20.23459 l 16.07326,-6.77527"
           id="path4970-0-1-8"
           style="fill:#155195;fill-opacity:1;fill-rule:evenodd;stroke:#000000;stroke-width:1.5;stroke-linecap:round;stroke-linejoin:miter;stroke-miterlimit:4;stroke-dashoffset:0;stroke-opacity:1" />
      </g>
      <path
         inkscape:connector-curvature="0"
         d="m 69.79743,141.12381 c 0,0 10.31092,4.75225 19.25831,10.54174 8.9474,5.78949 16.53127,12.52052 16.63376,12.57383 1.79004,-1.97418 2.79227,-3.17269 4.28016,-5.48214 4.39973,-6.82908 -25.90917,-23.48383 -25.76795,-23.4773 l -14.40428,5.84387 z"
         id="path4781-5-8-6"
         style="fill:#155195;fill-opacity:1;fill-rule:nonzero;stroke:#000000;stroke-width:1.5;stroke-linecap:round;stroke-linejoin:miter;stroke-miterlimit:4;stroke-dashoffset:0;stroke-opacity:1" />
      <path
         inkscape:connector-curvature="0"
         d="m 84.06049,135.27341 c 0,0 30.018,16.47587 25.90917,23.48383 -12.01424,20.49132 -65.78267,29.0725 -74.03433,49.17194 -2.23174,8.60323 -1.82532,15.22783 0.55973,21.19289 12.61843,14.09457 5.47647,8.09725 12.3918,12.76388 0,-0.14504 -13.05455,-6.29621 -10.63144,-15.79439 7.96566,-31.22391 44.09371,-23.4973 75.14357,-53.26288 2.1362,-3.39721 2.51364,-8.99288 0.47275,-16.78703 0.0984,-4.16851 -19.54036,-13.66877 -29.81125,-20.76824 z"
         id="path4783-87-9-0"
         style="display:inline;fill:#468fe7;fill-opacity:1;fill-rule:nonzero;stroke:#000000;stroke-width:1.5;stroke-linecap:round;stroke-linejoin:miter;stroke-miterlimit:4;stroke-dashoffset:0;stroke-opacity:1" />
      <path
         inkscape:connector-curvature="0"
         d="m 75.73202,153.88258 c 2.51411,-3.77117 1.26509,-3.40285 -0.66014,-5.04083 0,0 1.92523,1.63798 -0.0026,0.0367 L 55.75509,147.3475 c -0.03557,-0.15974 -1.52077,0.83441 -3.38158,2.12006 -1.86082,1.28566 -4.09724,2.86281 -3.96618,3.06206 l 27.32474,1.35299 z"
         id="path4785-5-8-3-7"
         style="display:inline;fill:#de3d2d;fill-opacity:1;fill-rule:evenodd;stroke:#000000;stroke-width:1.5;stroke-linecap:round;stroke-linejoin:miter;stroke-miterlimit:4;stroke-dashoffset:0;stroke-opacity:1" />
      <path
         inkscape:connector-curvature="0"
         d="m 72.06513,179.85226 c -3.10248,-2.93587 0.46157,-3.42396 1.21585,-4.95642 0,0 -0.75428,1.53246 0.03104,-0.029 l -26.52788,-0.0704 c -1.0025,1.55188 -0.01366,0.0208 -0.01366,0.0208 -0.98884,1.53111 -1.40351,3.34929 0.83157,5.17377 l 0.06602,0.006 24.39706,-0.14504 z"
         id="path4787-8-0-3-0"
         style="display:inline;fill:#8adc27;fill-opacity:1;fill-rule:evenodd;stroke:#000000;stroke-width:1.5;stroke-linecap:round;stroke-linejoin:miter;stroke-miterlimit:4;stroke-dashoffset:0;stroke-opacity:1" />
      <path
         inkscape:connector-curvature="0"
         d="m 74.86814,162.4299 0.06839,4.43936 -35.94424,-0.49406 2.05752,-4.74794 33.81833,0.80264 z"
         id="path4789-2-0-7"
         style="display:inline;fill:#4bb0e8;fill-opacity:1;fill-rule:evenodd;stroke:#000000;stroke-width:1.5;stroke-linecap:round;stroke-linejoin:miter;stroke-miterlimit:4;stroke-dashoffset:0;stroke-opacity:1" />
      <path
         inkscape:connector-curvature="0"
         d="m 102.16399,155.0917 0.10992,0 c 2.23511,-3.04122 0.18321,-4.16293 -1.52914,-5.24464 l -25.67554,-0.96864 c 1.92788,1.33065 0.0026,-0.172 0.0026,-0.172 1.92523,1.63798 3.02634,1.37641 0.66014,5.17616 l 0.14791,0.0286 26.32509,1.13838"
         id="path4791-7-5-1"
         style="display:inline;fill:#8adc27;fill-opacity:1;fill-rule:evenodd;stroke:#000000;stroke-width:1.5;stroke-linecap:round;stroke-linejoin:miter;stroke-miterlimit:4;stroke-dashoffset:0;stroke-opacity:1" />
      <path
         inkscape:connector-curvature="0"
         d="m 82.47356,142.8552 c 1.44094,-1.62478 0.91394,-4.11513 -0.69593,-5.35128 0,0 1.60987,1.23615 -0.22955,-0.0749 l -1.89785,-0.23833 0.01377,-0.0357 -11.69002,4.78578 0.0093,0.0548 14.49029,0.85971 z"
         id="path4793-3-6-5"
         style="fill:#4bb0e8;fill-opacity:1;fill-rule:nonzero;stroke:#000000;stroke-width:1.5;stroke-linecap:round;stroke-linejoin:miter;stroke-miterlimit:4;stroke-dashoffset:0;stroke-opacity:1" />
      <path
         inkscape:connector-curvature="0"
         d="m 89.19239,175.03983 -10.46651,5.03354 0.051,-0.038 -6.68226,-0.038 -0.02949,-0.0272 c -3.13197,-3.08091 -0.1275,-3.54177 0.98022,-5.07423 0,0 -1.10772,1.53246 0.03104,-0.029 l 16.116,0.17295 z"
         id="path4797-47-6-1"
         style="display:inline;fill:#de3d2d;fill-opacity:1;fill-rule:evenodd;stroke:#000000;stroke-width:1.5;stroke-linecap:round;stroke-linejoin:miter;stroke-miterlimit:4;stroke-dashoffset:0;stroke-opacity:1" />
      <path
         inkscape:connector-curvature="0"
         d="m 101.32081,167.57313 5.36023,-4.5276 -31.8129,-0.61563 0.06841,0.01 -2e-5,4.4297 -1e-5,-0.0195 26.38429,0.7234 z"
         id="path4799-1-6-4"
         style="display:inline;fill:#f8c63f;fill-opacity:1;fill-rule:evenodd;stroke:#000000;stroke-width:1.5;stroke-linecap:round;stroke-linejoin:round;stroke-miterlimit:4;stroke-dashoffset:0;stroke-opacity:1" />
      <path
         inkscape:connector-curvature="0"
         d="m 70.57296,197.56378 c 0,0 10.31092,4.75225 19.25831,10.54174 8.9474,5.78949 16.53127,12.52052 16.63376,12.57383 1.79004,-1.97418 2.79227,-3.17269 4.28016,-5.48214 4.39973,-6.82908 -25.90917,-23.48383 -25.76795,-23.4773 l -14.40428,5.84387 z"
         id="path4803-7-9-5"
         style="fill:#155195;fill-opacity:1;fill-rule:nonzero;stroke:#000000;stroke-width:1.5;stroke-linecap:round;stroke-linejoin:miter;stroke-miterlimit:4;stroke-dashoffset:0;stroke-opacity:1" />
      <path
         inkscape:connector-curvature="0"
         d="m 76.50755,210.32255 c 2.51411,-3.77117 1.26509,-3.40285 -0.66014,-5.04083 0,0 1.92523,1.63798 -0.0027,0.0367 l -19.31419,-1.53095 c -0.03557,-0.15974 -1.52077,0.83441 -3.38158,2.12006 -1.86082,1.28566 -4.09724,2.86281 -3.96618,3.06206 l 27.32474,1.35299 z"
         id="path4807-3-3-2-1"
         style="display:inline;fill:#de3d2d;fill-opacity:1;fill-rule:evenodd;stroke:#000000;stroke-width:1.5;stroke-linecap:round;stroke-linejoin:miter;stroke-miterlimit:4;stroke-dashoffset:0;stroke-opacity:1" />
      <path
         inkscape:connector-curvature="0"
         d="m 102.93952,211.53167 0.10992,0 c 2.23511,-3.04122 0.18321,-4.16293 -1.52914,-5.24464 l -25.67554,-0.96864 c 1.92788,1.33065 0.0027,-0.172 0.0027,-0.172 1.92523,1.63798 3.02634,1.37641 0.66014,5.17616 l 0.14791,0.0286 26.32509,1.13838"
         id="path4813-0-1-5-7"
         style="display:inline;fill:#8adc27;fill-opacity:1;fill-rule:evenodd;stroke:#000000;stroke-width:1.5;stroke-linecap:round;stroke-linejoin:miter;stroke-miterlimit:4;stroke-dashoffset:0;stroke-opacity:1" />
      <path
         inkscape:connector-curvature="0"
         d="m 83.24909,199.29517 c 1.44094,-1.62478 0.91394,-4.11513 -0.69593,-5.35128 0,0 1.60987,1.23615 -0.22955,-0.0749 l -1.89785,-0.23833 0.01377,-0.0357 -11.69002,4.78578 0.0093,0.0548 14.49029,0.85971 z"
         id="path4815-6-6-9-3"
         style="fill:#4bb0e8;fill-opacity:1;fill-rule:nonzero;stroke:#000000;stroke-width:1.5;stroke-linecap:round;stroke-linejoin:miter;stroke-miterlimit:4;stroke-dashoffset:0;stroke-opacity:1" />
      <path
         inkscape:connector-curvature="0"
         d="m 102.09634,224.0131 5.36023,-4.5276 -31.8129,-0.61563 0.06841,0.01 -2e-5,4.4297 -10e-6,-0.0195 26.38429,0.7234 z"
         id="path4821-6-9-9"
         style="display:inline;fill:#f8c63f;fill-opacity:1;fill-rule:evenodd;stroke:#000000;stroke-width:1.5;stroke-linecap:round;stroke-linejoin:round;stroke-miterlimit:4;stroke-dashoffset:0;stroke-opacity:1" />
      <path
         inkscape:connector-curvature="0"
         d="m 59.5505,233.36949 c -7.99742,-5.49823 -17.74351,-15.49748 -17.91609,-15.64362 -0.32784,0.1753 -2.74883,5.78524 -3.37899,8.36569 -2.10206,8.60772 10.56455,15.45298 10.60164,15.64128 l 10.69344,-8.36335 z"
         id="path4909-27-2-7"
         style="fill:#155195;fill-opacity:1;fill-rule:evenodd;stroke:#000000;stroke-width:1.5;stroke-linecap:round;stroke-linejoin:miter;stroke-miterlimit:4;stroke-dashoffset:0;stroke-opacity:1" />
      <path
         inkscape:connector-curvature="0"
         d="m 84.83602,191.71338 c 0,0 29.5047,16.19918 25.90917,23.48383 -2.69904,5.46833 -18.52138,14.04247 -26.11514,18.72545 l 9.58255,10.13561 c 8.62521,-4.84225 15.73342,-10.08663 19.96192,-14.78962 2.1362,-3.39721 2.51364,-8.99288 0.47275,-16.78703 0.0984,-4.16851 -19.54036,-13.66877 -29.81125,-20.76824 z"
         id="path4911-9-9-8"
         style="display:inline;fill:#468fe7;fill-opacity:1;fill-rule:nonzero;stroke:#000000;stroke-width:1.5;stroke-linecap:round;stroke-linejoin:miter;stroke-miterlimit:4;stroke-dashoffset:0;stroke-opacity:1" />
      <path
         inkscape:connector-curvature="0"
         d="m 75.64367,218.86987 0.06839,4.43936 -35.94424,-0.49406 2.05752,-4.74794 33.81833,0.80264 z"
         id="path4811-6-8-0-7"
         style="display:inline;fill:#4bb0e8;fill-opacity:1;fill-rule:evenodd;stroke:#000000;stroke-width:1.5;stroke-linecap:round;stroke-linejoin:miter;stroke-miterlimit:4;stroke-dashoffset:0;stroke-opacity:1" />
    </g>
  </g>
</svg>
