<svg xmlns="http://www.w3.org/2000/svg" id="picture1" style="display: inline;" width="550" height="350" xunitlength="27.5" yunitlength="1.6666666666666667" xmin="-10" xmax="10" ymin="-10" ymax="200" ox="275" oy="16.666666666666668"><circle id="pointerpos" fill="red" cx="0" cy="0" r="0.5" /><rect style="fill: white; stroke-width: 1;" x="0" y="0" width="550" height="350" /><path fill="none" stroke="grey" stroke-width="0.5" d="M 275 0 L 275 350 M 302.5 0 L 302.5 350 M 330 0 L 330 350 M 357.5 0 L 357.5 350 M 385 0 L 385 350 M 412.5 0 L 412.5 350 M 440 0 L 440 350 M 467.5 0 L 467.5 350 M 495 0 L 495 350 M 522.5 0 L 522.5 350 M 247.5 0 L 247.5 350 M 220 0 L 220 350 M 192.5 0 L 192.5 350 M 165 0 L 165 350 M 137.5 0 L 137.5 350 M 110 0 L 110 350 M 82.5 0 L 82.5 350 M 55 0 L 55 350 M 27.5 0 L 27.5 350 M 0 333.333 L 550 333.333 M 0 300 L 550 300 M 0 266.667 L 550 266.667 M 0 233.333 L 550 233.333 M 0 200 L 550 200 M 0 166.667 L 550 166.667 M 0 133.333 L 550 133.333 M 0 100 L 550 100 M 0 66.6667 L 550 66.6667 M 0 33.3333 L 550 33.3333" /><text id="undefined" font-family="times" font-size="13.75" font-style="normal" font-weight="normal" text-anchor="middle" x="302.5" y="347.0834">1</text><text id="undefined" font-family="times" font-size="13.75" font-style="normal" font-weight="normal" text-anchor="middle" x="330" y="347.0834">2</text><text id="undefined" font-family="times" font-size="13.75" font-style="normal" font-weight="normal" text-anchor="middle" x="357.5" y="347.0834">3</text><text id="undefined" font-family="times" font-size="13.75" font-style="normal" font-weight="normal" text-anchor="middle" x="385" y="347.0834">4</text><text id="undefined" font-family="times" font-size="13.75" font-style="normal" font-weight="normal" text-anchor="middle" x="412.5" y="347.0834">5</text><text id="undefined" font-family="times" font-size="13.75" font-style="normal" font-weight="normal" text-anchor="middle" x="440" y="347.0834">6</text><text id="undefined" font-family="times" font-size="13.75" font-style="normal" font-weight="normal" text-anchor="middle" x="467.5" y="347.0834">7</text><text id="undefined" font-family="times" font-size="13.75" font-style="normal" font-weight="normal" text-anchor="middle" x="495" y="347.0834">8</text><text id="undefined" font-family="times" font-size="13.75" font-style="normal" font-weight="normal" text-anchor="middle" x="522.5" y="347.0834">9</text><text id="undefined" font-family="times" font-size="13.75" font-style="normal" font-weight="normal" text-anchor="middle" x="550" y="347.0834">10</text><text id="undefined" font-family="times" font-size="13.75" font-style="normal" font-weight="normal" text-anchor="middle" x="247.5" y="347.0834">-1</text><text id="undefined" font-family="times" font-size="13.75" font-style="normal" font-weight="normal" text-anchor="middle" x="220" y="347.0834">-2</text><text id="undefined" font-family="times" font-size="13.75" font-style="normal" font-weight="normal" text-anchor="middle" x="192.5" y="347.0834">-3</text><text id="undefined" font-family="times" font-size="13.75" font-style="normal" font-weight="normal" text-anchor="middle" x="165" y="347.0834">-4</text><text id="undefined" font-family="times" font-size="13.75" font-style="normal" font-weight="normal" text-anchor="middle" x="137.5" y="347.0834">-5</text><text id="undefined" font-family="times" font-size="13.75" font-style="normal" font-weight="normal" text-anchor="middle" x="110" y="347.0834">-6</text><text id="undefined" font-family="times" font-size="13.75" font-style="normal" font-weight="normal" text-anchor="middle" x="82.5" y="347.0834">-7</text><text id="undefined" font-family="times" font-size="13.75" font-style="normal" font-weight="normal" text-anchor="middle" x="55" y="347.0834">-8</text><text id="undefined" font-family="times" font-size="13.75" font-style="normal" font-weight="normal" text-anchor="middle" x="27.5" y="347.0834">-9</text><text id="undefined" font-family="times" font-size="13.75" font-style="normal" font-weight="normal" text-anchor="middle" x="0" y="347.0834">-10</text><text id="undefined" font-family="times" font-size="13.75" font-style="normal" font-weight="normal" text-anchor="end" x="268.125" y="304.5834">20</text><text id="undefined" font-family="times" font-size="13.75" font-style="normal" font-weight="normal" text-anchor="end" x="268.125" y="271.25">40</text><text id="undefined" font-family="times" font-size="13.75" font-style="normal" font-weight="normal" text-anchor="end" x="268.125" y="237.9167">60</text><text id="undefined" font-family="times" font-size="13.75" font-style="normal" font-weight="normal" text-anchor="end" x="268.125" y="204.5833">80</text><text id="undefined" font-family="times" font-size="13.75" font-style="normal" font-weight="normal" text-anchor="end" x="268.125" y="171.25">100</text><text id="undefined" font-family="times" font-size="13.75" font-style="normal" font-weight="normal" text-anchor="end" x="268.125" y="137.9167">120</text><text id="undefined" font-family="times" font-size="13.75" font-style="normal" font-weight="normal" text-anchor="end" x="268.125" y="104.5833">140</text><text id="undefined" font-family="times" font-size="13.75" font-style="normal" font-weight="normal" text-anchor="end" x="268.125" y="71.25">160</text><text id="undefined" font-family="times" font-size="13.75" font-style="normal" font-weight="normal" text-anchor="end" x="268.125" y="37.9167">180</text><text id="undefined" font-family="times" font-size="13.75" font-style="normal" font-weight="normal" text-anchor="end" x="268.125" y="4.5833">200</text><path fill="none" stroke="black" stroke-width="0.5" d="M 0 333.333 L 550 333.333 M 275 0 L 275 350 M 302.5 336.771 L 302.5 329.896 M 330 336.771 L 330 329.896 M 357.5 336.771 L 357.5 329.896 M 385 336.771 L 385 329.896 M 412.5 336.771 L 412.5 329.896 M 440 336.771 L 440 329.896 M 467.5 336.771 L 467.5 329.896 M 495 336.771 L 495 329.896 M 522.5 336.771 L 522.5 329.896 M 247.5 336.771 L 247.5 329.896 M 220 336.771 L 220 329.896 M 192.5 336.771 L 192.5 329.896 M 165 336.771 L 165 329.896 M 137.5 336.771 L 137.5 329.896 M 110 336.771 L 110 329.896 M 82.5 336.771 L 82.5 329.896 M 55 336.771 L 55 329.896 M 27.5 336.771 L 27.5 329.896 M 278.438 300 L 271.563 300 M 278.438 266.667 L 271.563 266.667 M 278.438 233.333 L 271.563 233.333 M 278.438 200 L 271.563 200 M 278.438 166.667 L 271.563 166.667 M 278.438 133.333 L 271.563 133.333 M 278.438 100 L 271.563 100 M 278.438 66.6667 L 271.563 66.6667 M 278.438 33.3333 L 271.563 33.3333" /><path id="undefined" fill="none" stroke="blue" stroke-width="1" d="M 0 62.8517 L 2.75 91.717 L 5.49999 118.753 L 8.24999 143.719 L 11 166.487 L 13.75 187.016 L 16.5 205.343 L 19.25 221.558 L 22 235.791 L 24.75 248.196 L 27.5 258.937 L 30.25 268.184 L 33 276.098 L 35.75 282.834 L 38.5 288.532 L 41.25 293.32 L 44 297.309 L 46.75 300.596 L 49.5 303.265 L 52.2499 305.386 L 54.9999 307.017 L 57.7499 308.204 L 60.4999 308.987 L 63.2499 309.393 L 65.9999 309.443 L 68.7499 309.151 L 71.4999 308.525 L 74.2499 307.568 L 76.9999 306.279 L 79.7499 304.651 L 82.4999 302.678 L 85.2499 300.352 L 87.9999 297.664 L 90.7499 294.609 L 93.4999 291.185 L 96.2499 287.399 L 98.9999 283.264 L 101.75 278.807 L 104.5 274.071 L 107.25 269.115 L 110 264.016 L 112.75 258.873 L 115.5 253.804 L 118.25 248.942 L 121 244.436 L 123.75 240.441 L 126.5 237.112 L 129.25 234.593 L 132 233.01 L 134.75 232.461 L 137.5 233.005 L 140.25 234.66 L 143 237.398 L 145.75 241.146 L 148.5 245.792 L 151.25 251.187 L 154 257.162 L 156.75 263.533 L 159.5 270.118 L 162.25 276.74 L 165 283.243 L 167.75 289.493 L 170.5 295.386 L 173.25 300.845 L 176 305.822 L 178.75 310.293 L 181.5 314.256 L 184.25 317.727 L 187 320.733 L 189.75 323.311 L 192.5 325.501 L 195.25 327.346 L 198 328.89 L 200.75 330.174 L 203.5 331.234 L 206.25 332.107 L 209 332.823 L 211.75 333.41 L 214.5 333.891 L 217.25 334.288 L 220 334.619 L 222.75 334.901 L 225.5 335.149 L 228.25 335.374 L 231 335.586 L 233.75 335.787 L 236.5 335.965 L 239.25 336.076 L 242 336.004 L 244.75 335.513 L 247.5 334.282 L 250.25 332.683 L 253 333.901 L 255.75 334.509 L 258.5 335.523 L 261.25 333.906 L 264 332.277 L 266.75 333.547 L 269.5 333.708 L 272.25 332.146 L 275 334.251 L 277.75 331.791 L 280.5 333.019 L 283.25 332.845 L 286 333.81 L 288.75 331.824 L 291.5 329.748 L 294.25 330.175 L 297 330.059 L 299.75 330.412 L 302.5 327.801 L 305.25 325.41 L 308 323.622 L 310.75 322.134 L 313.5 320.731 L 316.25 319.329 L 319 317.917 L 321.75 316.521 L 324.5 315.179 L 327.25 313.93 L 330 312.812 L 332.75 311.854 L 335.5 311.076 L 338.25 310.49 L 341 310.094 L 343.75 309.882 L 346.5 309.838 L 349.25 309.94 L 352 310.163 L 354.75 310.481 L 357.5 310.866 L 360.25 311.294 L 363 311.741 L 365.75 312.186 L 368.5 312.612 L 371.25 313.002 L 374 313.345 L 376.75 313.631 L 379.5 313.852 L 382.25 314.002 L 385 314.074 L 387.75 314.063 L 390.5 313.965 L 393.25 313.773 L 396 313.48 L 398.75 313.078 L 401.5 312.557 L 404.25 311.905 L 407 311.105 L 409.75 310.14 L 412.5 308.987 L 415.25 307.618 L 418 306.001 L 420.75 304.097 L 423.5 301.86 L 426.25 299.238 L 429 296.169 L 431.75 292.585 L 434.5 288.409 L 437.25 283.556 L 440 277.937 L 442.75 271.456 L 445.5 264.021 L 448.25 255.542 L 451 245.943 L 453.75 235.165 L 456.5 223.18 L 459.25 209.996 L 462 195.67 L 464.75 180.319 L 467.5 164.122 L 470.25 147.327 L 473 130.249 L 475.75 113.266 L 478.5 96.7999 L 481.25 81.3048 L 484 67.2387 L 486.75 55.0384 L 489.5 45.0913 L 492.25 37.7097 L 495 33.1095 L 497.75 31.3961 L 500.5 32.5585 L 503.25 36.4725 L 505.999 42.9124 L 508.749 51.5693 L 511.499 62.0742 L 514.25 74.0232 L 517 87.0022 L 519.749 100.609 L 522.499 114.472 L 525.249 128.262 L 527.999 141.702 L 530.749 154.57 L 533.499 166.697 L 536.249 177.965 L 538.999 188.298 L 541.749 197.659 L 544.499 206.039 L 547.249 213.452 L 549.999 219.925" /><path id="undefined" fill="none" stroke="green" stroke-width="1" d="M 0 332.313 L 2.75 331.88 L 5.49999 331.505 L 8.24999 331.203 L 11 330.985 L 13.75 330.862 L 16.5 330.836 L 19.25 330.911 L 22 331.082 L 24.75 331.342 L 27.5 331.683 L 30.25 332.088 L 33 332.544 L 35.75 333.031 L 38.5 333.53 L 41.25 334.021 L 44 334.485 L 46.75 334.903 L 49.5 335.258 L 52.2499 335.537 L 54.9999 335.727 L 57.7499 335.823 L 60.4999 335.819 L 63.2499 335.716 L 65.9999 335.518 L 68.7499 335.233 L 71.4999 334.872 L 74.2499 334.45 L 76.9999 333.983 L 79.7499 333.49 L 82.4999 332.992 L 85.2499 332.506 L 87.9999 332.054 L 90.7499 331.653 L 93.4999 331.319 L 96.2499 331.065 L 98.9999 330.901 L 101.75 330.835 L 104.5 330.868 L 107.25 330.999 L 110 331.224 L 112.75 331.532 L 115.5 331.913 L 118.25 332.35 L 121 332.826 L 123.75 333.322 L 126.5 333.819 L 129.25 334.297 L 132 334.736 L 134.75 335.119 L 137.5 335.431 L 140.25 335.659 L 143 335.795 L 145.75 335.833 L 148.5 335.77 L 151.25 335.611 L 154 335.361 L 156.75 335.03 L 159.5 334.632 L 162.25 334.181 L 165 333.697 L 167.75 333.198 L 170.5 332.705 L 173.25 332.237 L 176 331.812 L 178.75 331.449 L 181.5 331.16 L 184.25 330.958 L 187 330.85 L 189.75 330.842 L 192.5 330.933 L 195.25 331.12 L 198 331.394 L 200.75 331.747 L 203.5 332.162 L 206.25 332.624 L 209 333.115 L 211.75 333.614 L 214.5 334.102 L 217.25 334.559 L 220 334.967 L 222.75 335.311 L 225.5 335.575 L 228.25 335.75 L 231 335.829 L 233.75 335.808 L 236.5 335.689 L 239.25 335.476 L 242 335.177 L 244.75 334.805 L 247.5 334.374 L 250.25 333.901 L 253 333.406 L 255.75 332.908 L 258.5 332.427 L 261.25 331.983 L 264 331.592 L 266.75 331.27 L 269.5 331.031 L 272.25 330.883 L 275 330.833 L 277.75 330.883 L 280.5 331.031 L 283.25 331.27 L 286 331.592 L 288.75 331.983 L 291.5 332.427 L 294.25 332.908 L 297 333.406 L 299.75 333.901 L 302.5 334.374 L 305.25 334.805 L 308 335.177 L 310.75 335.476 L 313.5 335.689 L 316.25 335.808 L 319 335.829 L 321.75 335.75 L 324.5 335.575 L 327.25 335.311 L 330 334.967 L 332.75 334.559 L 335.5 334.102 L 338.25 333.614 L 341 333.115 L 343.75 332.624 L 346.5 332.162 L 349.25 331.747 L 352 331.394 L 354.75 331.12 L 357.5 330.933 L 360.25 330.842 L 363 330.85 L 365.75 330.958 L 368.5 331.16 L 371.25 331.449 L 374 331.812 L 376.75 332.237 L 379.5 332.705 L 382.25 333.198 L 385 333.697 L 387.75 334.181 L 390.5 334.632 L 393.25 335.03 L 396 335.361 L 398.75 335.611 L 401.5 335.77 L 404.25 335.833 L 407 335.795 L 409.75 335.659 L 412.5 335.431 L 415.25 335.119 L 418 334.736 L 420.75 334.297 L 423.5 333.819 L 426.25 333.322 L 429 332.826 L 431.75 332.35 L 434.5 331.913 L 437.25 331.532 L 440 331.224 L 442.75 330.999 L 445.5 330.868 L 448.25 330.835 L 451 330.901 L 453.75 331.065 L 456.5 331.319 L 459.25 331.653 L 462 332.054 L 464.75 332.506 L 467.5 332.991 L 470.25 333.49 L 473 333.983 L 475.75 334.449 L 478.5 334.872 L 481.25 335.232 L 484 335.518 L 486.75 335.716 L 489.5 335.819 L 492.25 335.823 L 495 335.728 L 497.75 335.537 L 500.5 335.258 L 503.25 334.903 L 505.999 334.485 L 508.749 334.021 L 511.499 333.53 L 514.25 333.031 L 517 332.544 L 519.749 332.089 L 522.499 331.683 L 525.249 331.342 L 527.999 331.082 L 530.749 330.911 L 533.499 330.836 L 536.249 330.862 L 538.999 330.985 L 541.749 331.203 L 544.499 331.505 L 547.249 331.88 L 549.999 332.313" /></svg>