<?xml version="1.0" encoding="UTF-8" standalone="no"?>
<svg
   xmlns:dc="http://purl.org/dc/elements/1.1/"
   xmlns:cc="http://creativecommons.org/ns#"
   xmlns:rdf="http://www.w3.org/1999/02/22-rdf-syntax-ns#"
   xmlns:svg="http://www.w3.org/2000/svg"
   xmlns="http://www.w3.org/2000/svg"
   xmlns:sodipodi="http://sodipodi.sourceforge.net/DTD/sodipodi-0.dtd"
   xmlns:inkscape="http://www.inkscape.org/namespaces/inkscape"
   id="picture1"
   style="display: inline;"
   width="550"
   height="350"
   xunitlength="27.5"
   yunitlength="1.6666666666666667"
   xmin="-10"
   xmax="10"
   ymin="-10"
   ymax="200"
   ox="275"
   oy="16.666666666666668"
   version="1.1"
   inkscape:version="0.91pre3 r13670"
   sodipodi:docname="func2.svg">
  <metadata
     id="metadata77">
    <rdf:RDF>
      <cc:Work
         rdf:about="">
        <dc:format>image/svg+xml</dc:format>
        <dc:type
           rdf:resource="http://purl.org/dc/dcmitype/StillImage" />
        <dc:title></dc:title>
      </cc:Work>
    </rdf:RDF>
  </metadata>
  <defs
     id="defs75">
    <inkscape:path-effect
       effect="skeletal"
       id="path-effect4253"
       is_visible="true"
       pattern="M 14.719653,27.35983 A 7.3598266,7.3598266 0 0 1 7.359826,34.71965 7.3598266,7.3598266 0 0 1 0,27.35983 7.3598266,7.3598266 0 0 1 7.359826,20 a 7.3598266,7.3598266 0 0 1 7.359827,7.35983 z"
       copytype="repeated"
       prop_scale="1"
       scale_y_rel="false"
       spacing="5"
       normal_offset="0"
       tang_offset="0"
       prop_units="true"
       vertical_pattern="false"
       fuse_tolerance="0" />
    <inkscape:path-effect
       effect="skeletal"
       id="path-effect4207"
       is_visible="true"
       pattern="M 14.719653,7.35983 A 7.3598266,7.3598266 0 0 1 7.359826,14.71965 7.3598266,7.3598266 0 0 1 0,7.35983 7.3598266,7.3598266 0 0 1 7.359826,0 7.3598266,7.3598266 0 0 1 14.719653,7.35983 Z"
       copytype="repeated"
       prop_scale="1"
       scale_y_rel="false"
       spacing="0"
       normal_offset="0"
       tang_offset="0"
       prop_units="false"
       vertical_pattern="false"
       fuse_tolerance="0" />
  </defs>
  <sodipodi:namedview
     pagecolor="#ffffff"
     bordercolor="#666666"
     borderopacity="1"
     objecttolerance="10"
     gridtolerance="10"
     guidetolerance="10"
     inkscape:pageopacity="0"
     inkscape:pageshadow="2"
     inkscape:window-width="640"
     inkscape:window-height="480"
     id="namedview73"
     showgrid="false"
     inkscape:zoom="1.2907913"
     inkscape:cx="259.98624"
     inkscape:cy="144.29123"
     inkscape:current-layer="picture1" />
  <circle
     id="pointerpos"
     fill="red"
     cx="0"
     cy="0"
     r="0.5" />
  <rect
     style="fill: white; stroke-width: 1;"
     x="0"
     y="0"
     width="550"
     height="350"
     id="rect4" />
  <path
     fill="none"
     stroke="grey"
     stroke-width="0.5"
     d="M 275 0 L 275 350 M 302.5 0 L 302.5 350 M 330 0 L 330 350 M 357.5 0 L 357.5 350 M 385 0 L 385 350 M 412.5 0 L 412.5 350 M 440 0 L 440 350 M 467.5 0 L 467.5 350 M 495 0 L 495 350 M 522.5 0 L 522.5 350 M 247.5 0 L 247.5 350 M 220 0 L 220 350 M 192.5 0 L 192.5 350 M 165 0 L 165 350 M 137.5 0 L 137.5 350 M 110 0 L 110 350 M 82.5 0 L 82.5 350 M 55 0 L 55 350 M 27.5 0 L 27.5 350 M 0 333.333 L 550 333.333 M 0 300 L 550 300 M 0 266.667 L 550 266.667 M 0 233.333 L 550 233.333 M 0 200 L 550 200 M 0 166.667 L 550 166.667 M 0 133.333 L 550 133.333 M 0 100 L 550 100 M 0 66.6667 L 550 66.6667 M 0 33.3333 L 550 33.3333"
     id="path6" />
  <path
     id="path69"
     fill="none"
     stroke="blue"
     stroke-width="1"
     d="M 0 62.8517 L 2.75 91.717 L 5.49999 118.753 L 8.24999 143.719 L 11 166.487 L 13.75 187.016 L 16.5 205.343 L 19.25 221.558 L 22 235.791 L 24.75 248.196 L 27.5 258.937 L 30.25 268.184 L 33 276.098 L 35.75 282.834 L 38.5 288.532 L 41.25 293.32 L 44 297.309 L 46.75 300.596 L 49.5 303.265 L 52.2499 305.386 L 54.9999 307.017 L 57.7499 308.204 L 60.4999 308.987 L 63.2499 309.393 L 65.9999 309.443 L 68.7499 309.151 L 71.4999 308.525 L 74.2499 307.568 L 76.9999 306.279 L 79.7499 304.651 L 82.4999 302.678 L 85.2499 300.352 L 87.9999 297.664 L 90.7499 294.609 L 93.4999 291.185 L 96.2499 287.399 L 98.9999 283.264 L 101.75 278.807 L 104.5 274.071 L 107.25 269.115 L 110 264.016 L 112.75 258.873 L 115.5 253.804 L 118.25 248.942 L 121 244.436 L 123.75 240.441 L 126.5 237.112 L 129.25 234.593 L 132 233.01 L 134.75 232.461 L 137.5 233.005 L 140.25 234.66 L 143 237.398 L 145.75 241.146 L 148.5 245.792 L 151.25 251.187 L 154 257.162 L 156.75 263.533 L 159.5 270.118 L 162.25 276.74 L 165 283.243 L 167.75 289.493 L 170.5 295.386 L 173.25 300.845 L 176 305.822 L 178.75 310.293 L 181.5 314.256 L 184.25 317.727 L 187 320.733 L 189.75 323.311 L 192.5 325.501 L 195.25 327.346 L 198 328.89 L 200.75 330.174 L 203.5 331.234 L 206.25 332.107 L 209 332.823 L 211.75 333.41 L 214.5 333.891 L 217.25 334.288 L 220 334.619 L 222.75 334.901 L 225.5 335.149 L 228.25 335.374 L 231 335.586 L 233.75 335.787 L 236.5 335.965 L 239.25 336.076 L 242 336.004 L 244.75 335.513 L 247.5 334.282 L 250.25 332.683 L 253 333.901 L 255.75 334.509 L 258.5 335.523 L 261.25 333.906 L 264 332.277 L 266.75 333.547 L 269.5 333.708 L 272.25 332.146 L 275 334.251 L 277.75 331.791 L 280.5 333.019 L 283.25 332.845 L 286 333.81 L 288.75 331.824 L 291.5 329.748 L 294.25 330.175 L 297 330.059 L 299.75 330.412 L 302.5 327.801 L 305.25 325.41 L 308 323.622 L 310.75 322.134 L 313.5 320.731 L 316.25 319.329 L 319 317.917 L 321.75 316.521 L 324.5 315.179 L 327.25 313.93 L 330 312.812 L 332.75 311.854 L 335.5 311.076 L 338.25 310.49 L 341 310.094 L 343.75 309.882 L 346.5 309.838 L 349.25 309.94 L 352 310.163 L 354.75 310.481 L 357.5 310.866 L 360.25 311.294 L 363 311.741 L 365.75 312.186 L 368.5 312.612 L 371.25 313.002 L 374 313.345 L 376.75 313.631 L 379.5 313.852 L 382.25 314.002 L 385 314.074 L 387.75 314.063 L 390.5 313.965 L 393.25 313.773 L 396 313.48 L 398.75 313.078 L 401.5 312.557 L 404.25 311.905 L 407 311.105 L 409.75 310.14 L 412.5 308.987 L 415.25 307.618 L 418 306.001 L 420.75 304.097 L 423.5 301.86 L 426.25 299.238 L 429 296.169 L 431.75 292.585 L 434.5 288.409 L 437.25 283.556 L 440 277.937 L 442.75 271.456 L 445.5 264.021 L 448.25 255.542 L 451 245.943 L 453.75 235.165 L 456.5 223.18 L 459.25 209.996 L 462 195.67 L 464.75 180.319 L 467.5 164.122 L 470.25 147.327 L 473 130.249 L 475.75 113.266 L 478.5 96.7999 L 481.25 81.3048 L 484 67.2387 L 486.75 55.0384 L 489.5 45.0913 L 492.25 37.7097 L 495 33.1095 L 497.75 31.3961 L 500.5 32.5585 L 503.25 36.4725 L 505.999 42.9124 L 508.749 51.5693 L 511.499 62.0742 L 514.25 74.0232 L 517 87.0022 L 519.749 100.609 L 522.499 114.472 L 525.249 128.262 L 527.999 141.702 L 530.749 154.57 L 533.499 166.697 L 536.249 177.965 L 538.999 188.298 L 541.749 197.659 L 544.499 206.039 L 547.249 213.452 L 549.999 219.925" />
  <path
     style="color:#000000;clip-rule:nonzero;display:inline;overflow:visible;visibility:visible;opacity:1;isolation:auto;mix-blend-mode:normal;color-interpolation:sRGB;color-interpolation-filters:linearRGB;solid-color:#000000;solid-opacity:1;fill:#ff0000;fill-opacity:1;fill-rule:nonzero;stroke:none;stroke-width:1.01199996;stroke-linecap:butt;stroke-linejoin:miter;stroke-miterlimit:4;stroke-dasharray:none;stroke-dashoffset:0;stroke-opacity:1;color-rendering:auto;image-rendering:auto;shape-rendering:auto;text-rendering:auto;enable-background:accumulate"
     d="m 130.92744,238.82789 a 7.3598266,7.3598266 0 0 1 -7.35982,7.35982 7.3598266,7.3598266 0 0 1 -7.35983,-7.35982 7.3598266,7.3598266 0 0 1 7.35983,-7.35983 7.3598266,7.3598266 0 0 1 7.35982,7.35983 z"
     id="path4205"
     inkscape:connector-curvature="0" />
  <path
     style="color:#000000;clip-rule:nonzero;display:inline;overflow:visible;visibility:visible;opacity:1;isolation:auto;mix-blend-mode:normal;color-interpolation:sRGB;color-interpolation-filters:linearRGB;solid-color:#000000;solid-opacity:1;fill:#ff0000;fill-opacity:1;fill-rule:nonzero;stroke:none;stroke-width:1.01199996;stroke-linecap:butt;stroke-linejoin:miter;stroke-miterlimit:4;stroke-dasharray:none;stroke-dashoffset:0;stroke-opacity:1;color-rendering:auto;image-rendering:auto;shape-rendering:auto;text-rendering:auto;enable-background:accumulate"
     d="m 78.633935,308.1652 a 7.3598266,7.3598266 0 0 1 -7.35982,7.35982 7.3598266,7.3598266 0 0 1 -7.35983,-7.35982 7.3598266,7.3598266 0 0 1 7.35983,-7.35983 7.3598266,7.3598266 0 0 1 7.35982,7.35983 z"
     id="path4205-7"
     inkscape:connector-curvature="0" />
  <path
     style="color:#000000;clip-rule:nonzero;display:inline;overflow:visible;visibility:visible;opacity:1;isolation:auto;mix-blend-mode:normal;color-interpolation:sRGB;color-interpolation-filters:linearRGB;solid-color:#000000;solid-opacity:1;fill:#ff0000;fill-opacity:1;fill-rule:nonzero;stroke:none;stroke-width:1.01199996;stroke-linecap:butt;stroke-linejoin:miter;stroke-miterlimit:4;stroke-dasharray:none;stroke-dashoffset:0;stroke-opacity:1;color-rendering:auto;image-rendering:auto;shape-rendering:auto;text-rendering:auto;enable-background:accumulate"
     d="M 32.15082,245.413 A 7.3598266,7.3598266 0 0 1 24.791,252.77282 7.3598266,7.3598266 0 0 1 17.43117,245.413 7.3598266,7.3598266 0 0 1 24.791,238.05317 7.3598266,7.3598266 0 0 1 32.15082,245.413 Z"
     id="path4205-75"
     inkscape:connector-curvature="0" />
  <path
     style="color:#000000;clip-rule:nonzero;display:inline;overflow:visible;visibility:visible;opacity:1;isolation:auto;mix-blend-mode:normal;color-interpolation:sRGB;color-interpolation-filters:linearRGB;solid-color:#000000;solid-opacity:1;fill:#ff0000;fill-opacity:1;fill-rule:nonzero;stroke:none;stroke-width:1.01199996;stroke-linecap:butt;stroke-linejoin:miter;stroke-miterlimit:4;stroke-dasharray:none;stroke-dashoffset:0;stroke-opacity:1;color-rendering:auto;image-rendering:auto;shape-rendering:auto;text-rendering:auto;enable-background:accumulate"
     d="m 17.431167,158.64451 a 7.3598266,7.3598266 0 0 1 -7.35982,7.35982 7.3598266,7.3598266 0 0 1 -7.3598304,-7.35982 7.3598266,7.3598266 0 0 1 7.3598304,-7.35983 7.3598266,7.3598266 0 0 1 7.35982,7.35983 z"
     id="path4205-4"
     inkscape:connector-curvature="0" />
  <path
     style="color:#000000;clip-rule:nonzero;display:inline;overflow:visible;visibility:visible;opacity:1;isolation:auto;mix-blend-mode:normal;color-interpolation:sRGB;color-interpolation-filters:linearRGB;solid-color:#000000;solid-opacity:1;fill:#ff0000;fill-opacity:1;fill-rule:nonzero;stroke:none;stroke-width:1.01199996;stroke-linecap:butt;stroke-linejoin:miter;stroke-miterlimit:4;stroke-dasharray:none;stroke-dashoffset:0;stroke-opacity:1;color-rendering:auto;image-rendering:auto;shape-rendering:auto;text-rendering:auto;enable-background:accumulate"
     d="m 178.57263,296.54442 a 7.3598266,7.3598266 0 0 1 -7.35982,7.35982 7.3598266,7.3598266 0 0 1 -7.35983,-7.35982 7.3598266,7.3598266 0 0 1 7.35983,-7.35983 7.3598266,7.3598266 0 0 1 7.35982,7.35983 z"
     id="path4205-6"
     inkscape:connector-curvature="0" />
  <path
     style="color:#000000;clip-rule:nonzero;display:inline;overflow:visible;visibility:visible;opacity:1;isolation:auto;mix-blend-mode:normal;color-interpolation:sRGB;color-interpolation-filters:linearRGB;solid-color:#000000;solid-opacity:1;fill:#ff0000;fill-opacity:1;fill-rule:nonzero;stroke:none;stroke-width:1.01199996;stroke-linecap:butt;stroke-linejoin:miter;stroke-miterlimit:4;stroke-dasharray:none;stroke-dashoffset:0;stroke-opacity:1;color-rendering:auto;image-rendering:auto;shape-rendering:auto;text-rendering:auto;enable-background:accumulate"
     d="m 249.84674,336.05507 a 7.3598266,7.3598266 0 0 1 -7.35982,7.35982 7.3598266,7.3598266 0 0 1 -7.35983,-7.35982 7.3598266,7.3598266 0 0 1 7.35983,-7.35983 7.3598266,7.3598266 0 0 1 7.35982,7.35983 z"
     id="path4205-74"
     inkscape:connector-curvature="0" />
  <path
     style="color:#000000;clip-rule:nonzero;display:inline;overflow:visible;visibility:visible;opacity:1;isolation:auto;mix-blend-mode:normal;color-interpolation:sRGB;color-interpolation-filters:linearRGB;solid-color:#000000;solid-opacity:1;fill:#ff0000;fill-opacity:1;fill-rule:nonzero;stroke:none;stroke-width:1.01199996;stroke-linecap:butt;stroke-linejoin:miter;stroke-miterlimit:4;stroke-dasharray:none;stroke-dashoffset:0;stroke-opacity:1;color-rendering:auto;image-rendering:auto;shape-rendering:auto;text-rendering:auto;enable-background:accumulate"
     d="m 328.09332,318.23654 a 7.3598266,7.3598266 0 0 1 -7.35982,7.35982 7.3598266,7.3598266 0 0 1 -7.35983,-7.35982 7.3598266,7.3598266 0 0 1 7.35983,-7.35983 7.3598266,7.3598266 0 0 1 7.35982,7.35983 z"
     id="path4205-77"
     inkscape:connector-curvature="0" />
  <path
     style="color:#000000;clip-rule:nonzero;display:inline;overflow:visible;visibility:visible;opacity:1;isolation:auto;mix-blend-mode:normal;color-interpolation:sRGB;color-interpolation-filters:linearRGB;solid-color:#000000;solid-opacity:1;fill:#ff0000;fill-opacity:1;fill-rule:nonzero;stroke:none;stroke-width:1.01199996;stroke-linecap:butt;stroke-linejoin:miter;stroke-miterlimit:4;stroke-dasharray:none;stroke-dashoffset:0;stroke-opacity:1;color-rendering:auto;image-rendering:auto;shape-rendering:auto;text-rendering:auto;enable-background:accumulate"
     d="m 414.08708,312.03879 a 7.3598266,7.3598266 0 0 1 -7.35982,7.35982 7.3598266,7.3598266 0 0 1 -7.35983,-7.35982 7.3598266,7.3598266 0 0 1 7.35983,-7.35983 7.3598266,7.3598266 0 0 1 7.35982,7.35983 z"
     id="path4205-9"
     inkscape:connector-curvature="0" />
  <path
     style="color:#000000;clip-rule:nonzero;display:inline;overflow:visible;visibility:visible;opacity:1;isolation:auto;mix-blend-mode:normal;color-interpolation:sRGB;color-interpolation-filters:linearRGB;solid-color:#000000;solid-opacity:1;fill:#ff0000;fill-opacity:1;fill-rule:nonzero;stroke:none;stroke-width:1.01199996;stroke-linecap:butt;stroke-linejoin:miter;stroke-miterlimit:4;stroke-dasharray:none;stroke-dashoffset:0;stroke-opacity:1;color-rendering:auto;image-rendering:auto;shape-rendering:auto;text-rendering:auto;enable-background:accumulate"
     d="m 459.02076,240.76468 a 7.3598266,7.3598266 0 0 1 -7.35982,7.35982 7.3598266,7.3598266 0 0 1 -7.35983,-7.35982 7.3598266,7.3598266 0 0 1 7.35983,-7.35983 7.3598266,7.3598266 0 0 1 7.35982,7.35983 z"
     id="path4205-8"
     inkscape:connector-curvature="0" />
  <path
     style="color:#000000;clip-rule:nonzero;display:inline;overflow:visible;visibility:visible;opacity:1;isolation:auto;mix-blend-mode:normal;color-interpolation:sRGB;color-interpolation-filters:linearRGB;solid-color:#000000;solid-opacity:1;fill:#ff0000;fill-opacity:1;fill-rule:nonzero;stroke:none;stroke-width:1.01199996;stroke-linecap:butt;stroke-linejoin:miter;stroke-miterlimit:4;stroke-dasharray:none;stroke-dashoffset:0;stroke-opacity:1;color-rendering:auto;image-rendering:auto;shape-rendering:auto;text-rendering:auto;enable-background:accumulate"
     d="m 476.83929,153.22148 a 7.3598266,7.3598266 0 0 1 -7.35982,7.35982 7.3598266,7.3598266 0 0 1 -7.35983,-7.35982 7.3598266,7.3598266 0 0 1 7.35983,-7.35983 7.3598266,7.3598266 0 0 1 7.35982,7.35983 z"
     id="path4205-85"
     inkscape:connector-curvature="0" />
  <path
     style="color:#000000;clip-rule:nonzero;display:inline;overflow:visible;visibility:visible;opacity:1;isolation:auto;mix-blend-mode:normal;color-interpolation:sRGB;color-interpolation-filters:linearRGB;solid-color:#000000;solid-opacity:1;fill:#ff0000;fill-opacity:1;fill-rule:nonzero;stroke:none;stroke-width:1.01199996;stroke-linecap:butt;stroke-linejoin:miter;stroke-miterlimit:4;stroke-dasharray:none;stroke-dashoffset:0;stroke-opacity:1;color-rendering:auto;image-rendering:auto;shape-rendering:auto;text-rendering:auto;enable-background:accumulate"
     d="m 370.70284,311.26408 a 7.3598266,7.3598266 0 0 1 -7.35982,7.35982 7.3598266,7.3598266 0 0 1 -7.35983,-7.35982 7.3598266,7.3598266 0 0 1 7.35983,-7.35983 7.3598266,7.3598266 0 0 1 7.35982,7.35983 z"
     id="path4205-60"
     inkscape:connector-curvature="0" />
  <path
     style="color:#000000;clip-rule:nonzero;display:inline;overflow:visible;visibility:visible;opacity:1;isolation:auto;mix-blend-mode:normal;color-interpolation:sRGB;color-interpolation-filters:linearRGB;solid-color:#000000;solid-opacity:1;fill:#ff0000;fill-opacity:1;fill-rule:nonzero;stroke:none;stroke-width:1.01199996;stroke-linecap:butt;stroke-linejoin:miter;stroke-miterlimit:4;stroke-dasharray:none;stroke-dashoffset:0;stroke-opacity:1;color-rendering:auto;image-rendering:auto;shape-rendering:auto;text-rendering:auto;enable-background:accumulate"
     d="m 204.13835,328.30788 a 7.3598266,7.3598266 0 0 1 -7.35982,7.35982 7.3598266,7.3598266 0 0 1 -7.35983,-7.35982 7.3598266,7.3598266 0 0 1 7.35983,-7.35983 7.3598266,7.3598266 0 0 1 7.35982,7.35983 z"
     id="path4205-1"
     inkscape:connector-curvature="0" />
  <path
     style="color:#000000;clip-rule:nonzero;display:inline;overflow:visible;visibility:visible;opacity:1;isolation:auto;mix-blend-mode:normal;color-interpolation:sRGB;color-interpolation-filters:linearRGB;solid-color:#000000;solid-opacity:1;fill:#ff0000;fill-opacity:1;fill-rule:nonzero;stroke:none;stroke-width:1.01199996;stroke-linecap:butt;stroke-linejoin:miter;stroke-miterlimit:4;stroke-dasharray:none;stroke-dashoffset:0;stroke-opacity:1;color-rendering:auto;image-rendering:auto;shape-rendering:auto;text-rendering:auto;enable-background:accumulate"
     d="m 107.29852,284.92364 a 7.3598266,7.3598266 0 0 1 -7.359818,7.35982 7.3598266,7.3598266 0 0 1 -7.35983,-7.35982 7.3598266,7.3598266 0 0 1 7.35983,-7.35983 7.3598266,7.3598266 0 0 1 7.359818,7.35983 z"
     id="path4205-3"
     inkscape:connector-curvature="0" />
  <path
     style="color:#000000;clip-rule:nonzero;display:inline;overflow:visible;visibility:visible;opacity:1;isolation:auto;mix-blend-mode:normal;color-interpolation:sRGB;color-interpolation-filters:linearRGB;solid-color:#000000;solid-opacity:1;fill:#ff0000;fill-opacity:1;fill-rule:nonzero;stroke:none;stroke-width:1.01199996;stroke-linecap:butt;stroke-linejoin:miter;stroke-miterlimit:4;stroke-dasharray:none;stroke-dashoffset:0;stroke-opacity:1;color-rendering:auto;image-rendering:auto;shape-rendering:auto;text-rendering:auto;enable-background:accumulate"
     d="m 489.23478,82.722093 a 7.3598266,7.3598266 0 0 1 -7.35982,7.35982 7.3598266,7.3598266 0 0 1 -7.35983,-7.35982 7.3598266,7.3598266 0 0 1 7.35983,-7.35983 7.3598266,7.3598266 0 0 1 7.35982,7.35983 z"
     id="path4205-84"
     inkscape:connector-curvature="0" />
</svg>
