<?xml version="1.0" encoding="UTF-8" standalone="no"?>
<svg
   xmlns:dc="http://purl.org/dc/elements/1.1/"
   xmlns:cc="http://creativecommons.org/ns#"
   xmlns:rdf="http://www.w3.org/1999/02/22-rdf-syntax-ns#"
   xmlns:svg="http://www.w3.org/2000/svg"
   xmlns="http://www.w3.org/2000/svg"
   xmlns:xlink="http://www.w3.org/1999/xlink"
   version="1.1"
   id="svg3969"
   height="64px"
   width="64px">
  <defs
     id="defs3971">
    <linearGradient
       id="linearGradient3759-7">
      <stop
         id="stop3761-4"
         offset="0"
         style="stop-color:#454545;stop-opacity:1;" />
      <stop
         style="stop-color:#1c1c1c;stop-opacity:1;"
         offset="0.38427258"
         id="stop3850" />
      <stop
         style="stop-color:#383838;stop-opacity:1;"
         offset="0.76854515"
         id="stop3767-0" />
      <stop
         id="stop3769-9"
         offset="0.91430372"
         style="stop-color:#262626;stop-opacity:1;" />
      <stop
         id="stop3763-4"
         offset="1"
         style="stop-color:#000000;stop-opacity:1;" />
    </linearGradient>
    <linearGradient
       id="linearGradient3800">
      <stop
         id="stop3802"
         offset="0"
         style="stop-color:#28292b;stop-opacity:1;" />
      <stop
         id="stop3804"
         offset="1"
         style="stop-color:#1a2334;stop-opacity:1;" />
    </linearGradient>
    <linearGradient
       id="linearGradient3681">
      <stop
         id="stop3683"
         offset="0"
         style="stop-color:#6cbb73;stop-opacity:1;" />
      <stop
         id="stop3685"
         offset="1"
         style="stop-color:#7ccf83;stop-opacity:1;" />
    </linearGradient>
    <linearGradient
       id="linearGradient3691">
      <stop
         id="stop3693"
         offset="0"
         style="stop-color:#ffffff;stop-opacity:1;" />
      <stop
         id="stop3695"
         offset="1"
         style="stop-color:#919191;stop-opacity:1;" />
    </linearGradient>
    <linearGradient
       id="linearGradient4011">
      <stop
         id="stop4013"
         offset="0"
         style="stop-color:#6cbb73;stop-opacity:1;" />
      <stop
         id="stop4015"
         offset="1"
         style="stop-color:#7ccf83;stop-opacity:1;" />
    </linearGradient>
    <linearGradient
       id="linearGradient3673">
      <stop
         id="stop3675"
         offset="0"
         style="stop-color:#000000;stop-opacity:1;" />
      <stop
         id="stop3677"
         offset="1"
         style="stop-color:#797979;stop-opacity:1;" />
    </linearGradient>
    <linearGradient
       id="linearGradient3649">
      <stop
         id="stop3651"
         offset="0"
         style="stop-color:#71c97c;stop-opacity:1;" />
      <stop
         id="stop3653"
         offset="1"
         style="stop-color:#00b418;stop-opacity:1;" />
    </linearGradient>
    <linearGradient
       id="linearGradient4026">
      <stop
         id="stop4028"
         offset="0"
         style="stop-color:#71c97c;stop-opacity:1;" />
      <stop
         id="stop4030"
         offset="1"
         style="stop-color:#00b418;stop-opacity:1;" />
    </linearGradient>
    <linearGradient
       id="linearGradient3691-2">
      <stop
         style="stop-color:#ffffff;stop-opacity:1;"
         offset="0"
         id="stop3693-7" />
      <stop
         style="stop-color:#919191;stop-opacity:0.10144927;"
         offset="1"
         id="stop3695-6" />
    </linearGradient>
    <linearGradient
       id="linearGradient3759">
      <stop
         id="stop3761"
         offset="0"
         style="stop-color:#000000;stop-opacity:1;" />
      <stop
         style="stop-color:#383838;stop-opacity:1;"
         offset="0.76854515"
         id="stop3767" />
      <stop
         id="stop3769"
         offset="0.91430372"
         style="stop-color:#262626;stop-opacity:1;" />
      <stop
         id="stop3763"
         offset="1"
         style="stop-color:#000000;stop-opacity:1;" />
    </linearGradient>
    <linearGradient
       id="linearGradient3800-5">
      <stop
         style="stop-color:#28292b;stop-opacity:1;"
         offset="0"
         id="stop3802-1" />
      <stop
         style="stop-color:#1a2334;stop-opacity:1;"
         offset="1"
         id="stop3804-7" />
    </linearGradient>
    <linearGradient
       id="linearGradient3681-4">
      <stop
         id="stop3683-9"
         offset="0"
         style="stop-color:#6cbb73;stop-opacity:1;" />
      <stop
         id="stop3685-4"
         offset="1"
         style="stop-color:#7ccf83;stop-opacity:1;" />
    </linearGradient>
    <linearGradient
       id="linearGradient3691-2-2">
      <stop
         style="stop-color:#ffffff;stop-opacity:1;"
         offset="0"
         id="stop3693-7-4" />
      <stop
         style="stop-color:#919191;stop-opacity:0.10144927;"
         offset="1"
         id="stop3695-6-5" />
    </linearGradient>
    <radialGradient
       xlink:href="#linearGradient3681-1"
       id="radialGradient3811-6"
       cx="242.94168"
       cy="408.89502"
       fx="242.94168"
       fy="408.89502"
       r="11.616755"
       gradientUnits="userSpaceOnUse" />
    <linearGradient
       id="linearGradient3681-1">
      <stop
         style="stop-color:#6cbb73;stop-opacity:1;"
         offset="0"
         id="stop3683-4" />
      <stop
         style="stop-color:#7ccf83;stop-opacity:1;"
         offset="1"
         id="stop3685-2" />
    </linearGradient>
    <linearGradient
       id="linearGradient3673-3">
      <stop
         style="stop-color:#000000;stop-opacity:1;"
         offset="0"
         id="stop3675-2" />
      <stop
         style="stop-color:#797979;stop-opacity:1;"
         offset="1"
         id="stop3677-2" />
    </linearGradient>
    <linearGradient
       y2="451.68445"
       x2="80.714287"
       y1="451.68445"
       x1="44.285713"
       gradientTransform="matrix(0.10703888,0,0,0.09333258,25.91715,-20.624525)"
       gradientUnits="userSpaceOnUse"
       id="linearGradient4324"
       xlink:href="#linearGradient3673-3" />
    <linearGradient
       y2="459.14618"
       x2="187.46178"
       y1="459.14618"
       x1="172.82471"
       gradientTransform="matrix(0.14569262,0,0,0.13392735,-20.103914,-24.21877)"
       gradientUnits="userSpaceOnUse"
       id="linearGradient4331"
       xlink:href="#linearGradient3691" />
    <linearGradient
       y2="467.18246"
       x2="255.05678"
       y1="467.18246"
       x1="237.01489"
       gradientTransform="matrix(0.13362564,0,0,0.18378936,-20.771592,-42.88926)"
       gradientUnits="userSpaceOnUse"
       id="linearGradient4336"
       xlink:href="#linearGradient3681-4" />
    <linearGradient
       y2="344.50504"
       x2="633.35718"
       y1="344.50504"
       x1="153.78572"
       gradientTransform="matrix(0.13362564,0,0,0.13362564,-20.771592,-21.059938)"
       gradientUnits="userSpaceOnUse"
       id="linearGradient4339"
       xlink:href="#linearGradient3800-5" />
    <linearGradient
       gradientTransform="matrix(0.13362564,0,0,0.13362564,-20.467201,-43.817902)"
       y2="567.18835"
       x2="513.76422"
       y1="567.18835"
       x1="282.82205"
       gradientUnits="userSpaceOnUse"
       id="linearGradient4342"
       xlink:href="#linearGradient3759" />
  </defs>
  <metadata
     id="metadata3974">
    <rdf:RDF>
      <cc:Work
         rdf:about="">
        <dc:format>image/svg+xml</dc:format>
        <dc:type
           rdf:resource="http://purl.org/dc/dcmitype/StillImage" />
        <dc:title></dc:title>
      </cc:Work>
    </rdf:RDF>
  </metadata>
  <g
     id="layer1">
    <path
       id="rect3761-0"
       d="m 17.445341,21.080536 28.996764,0 1.622501,15.16442 c -0.206556,2.587507 -0.30578,2.671433 -1.83104,3.822101 -1.875687,1.114063 -4.148209,1.702889 -6.216918,2.123088 C 34.826936,43.244287 29.093894,43.237194 22.17548,40.914827 19.920664,40.206038 18.915483,37.09694 19.067842,35.819762 L 17.445341,21.080536 z"
       style="fill:url(#linearGradient4342);fill-opacity:1;fill-rule:nonzero;stroke:#d3d3d3;stroke-width:0.24052618;stroke-miterlimit:4;stroke-opacity:1;stroke-dasharray:none" />
    <path
       id="rect2830-2"
       d="M -0.15506411,22.684043 31.151514,15.811868 63.79435,22.111363 32.296877,34.13767 -0.15506411,22.684043 z"
       style="fill:url(#linearGradient4339);fill-opacity:1;stroke:none" />
    <path
       id="rect3614-4"
       d="m 11.691647,37.134748 1.720685,-0.04595 c 0.97305,3.954969 2.749929,9.451838 2.208582,10.347186 -0.691017,1.475163 -3.952315,2.097887 -4.72124,0.415277 0.04438,-3.181601 0.92179,-6.480827 0.791973,-10.716515 z"
       style="fill:url(#linearGradient4336);fill-opacity:1;fill-rule:nonzero;stroke:none" />
    <path
       id="path3605-7-8"
       d="m 34.556715,21.662304 c -1.132941,0.619449 -3.505852,-0.554552 -3.888461,-0.06028 -0.04007,0.05177 -5.34e-4,0.344858 0.0054,0.431742 0.934315,0.682789 2.737437,0.695306 3.835732,0.0085 l 0.04733,-0.37993 3e-6,0 10e-7,0 2e-6,0 -4e-6,0 z"
       style="fill:#373737;fill-opacity:1;stroke:none" />
    <path
       id="rect3617-6"
       d="m 31.867365,21.634128 0.966752,0.286341 c -4.875446,1.250471 -17.768909,2.503801 -20.153367,4.836807 -0.717996,0.716672 -0.0345,3.963277 -0.263258,5.938949 l -1.13352,0.0063 c 0.15587,-1.931898 -0.338003,-4.803986 0.16934,-5.915002 0.553091,-1.132394 2.842585,-2.606589 20.414053,-5.15343 z"
       style="fill:#72c482;fill-opacity:1;stroke:none" />
    <rect
       transform="matrix(0.99011313,-0.14027113,0.16668964,0.98600941,0,0)"
       y="35.63311"
       x="5.1482162"
       height="3.2807112"
       width="1.9868189"
       id="rect3612-5"
       style="fill:url(#linearGradient4331);fill-opacity:1.0;fill-rule:nonzero;stroke:none" />
    <path
       id="rect3723-0"
       d="m 34.318548,21.183919 c 3.580238,-1.186026 7.298311,-2.192703 11.69284,-2.125972 0.19646,-0.04671 0.528953,0.311714 -0.188975,0.330706 -3.872697,0.154354 -7.499239,1.211271 -11.19678,2.007863 -0.466866,0.15759 -0.590853,-0.126506 -0.307085,-0.212597 z"
       style="fill:#424345;fill-opacity:1;stroke:none" />
    <path
       id="rect3723-1-9"
       d="m 34.382727,21.998216 c 4.238357,0.916 8.506994,2.08335 12.810109,4.66979 0.221725,0.0679 0.338589,0.602953 -0.382059,0.209119 -3.918034,-2.074609 -8.125896,-3.141173 -12.250162,-4.498487 -0.554417,-0.116633 -0.509146,-0.460622 -0.177888,-0.380422 z"
       style="fill:#424345;fill-opacity:1;stroke:none" />
    <path
       id="rect3723-1-2-0"
       d="m 31.916946,21.327112 c -4.183257,-1.154997 -8.541806,-2.177989 -13.772849,-2.40159 -0.230711,-0.04898 -0.648855,0.21126 0.203841,0.271236 4.596388,0.364228 8.842892,1.420877 13.190311,2.27781 0.545316,0.152912 0.710762,-0.06212 0.378697,-0.147456 z"
       style="fill:#424345;fill-opacity:1;stroke:none" />
    <path
       transform="matrix(0.13362564,0,0,0.13362564,-20.501628,-20.924956)"
       d="m 254.55844,408.89502 a 11.616755,11.616755 0 1 1 -23.23351,0 11.616755,11.616755 0 1 1 23.23351,0 z"
       id="path3610-0"
       style="fill:url(#radialGradient3811-6);fill-opacity:1;fill-rule:nonzero;stroke:none" />
    <path
       id="path3605-6"
       d="m 34.556717,21.662272 c -0.871891,0.626719 -3.006224,0.605792 -3.899273,0 0,-0.441825 0.872881,-0.799994 1.949637,-0.799994 1.076754,0 1.949636,0.358169 1.949636,0.799994 z"
       style="fill:url(#linearGradient4324);fill-opacity:1;stroke:none" />
    <path
       id="rect3723-8-1"
       d="m 35.079888,21.569519 c 3.580238,-1.186027 7.298311,-2.192704 11.69284,-2.125972 0.19646,-0.04672 0.528953,0.311714 -0.188975,0.330706 -3.872697,0.154353 -7.499239,1.211271 -11.196779,2.007863 -0.466867,0.15759 -0.590854,-0.126506 -0.307086,-0.212597 z"
       style="fill:#000000;fill-opacity:1;stroke:none" />
    <path
       id="rect3723-8-8-3"
       d="m 33.778275,22.312787 c 4.284364,0.937274 8.598326,2.127355 12.941323,4.744226 0.224052,0.06912 0.340083,0.60748 -0.387407,0.208758 -3.955505,-2.100822 -8.208392,-3.189347 -12.375506,-4.569847 -0.560449,-0.119399 -0.513228,-0.465047 -0.17841,-0.383137 z"
       style="fill:#000000;fill-opacity:1;stroke:none" />
    <path
       id="rect3723-8-8-1-8"
       d="m 17.388519,18.813415 c 4.331664,0.364716 8.720174,0.926036 13.29329,2.608971 0.228723,0.03492 0.402101,0.448957 -0.359605,0.198272 -4.134208,-1.310149 -8.451329,-1.796782 -12.715695,-2.520939 -0.566285,-0.04518 -0.557451,-0.321633 -0.21799,-0.286304 z"
       style="fill:#000000;fill-opacity:1;stroke:none" />
  </g>
</svg>
